<svg width="54" height="54" viewBox="0 0 54 54" fill="none" xmlns="http://www.w3.org/2000/svg">
<path d="M0 2.07692C0 0.929872 0.92987 0 2.07692 0H27C41.9117 0 54 12.0883 54 27C54 41.9117 41.9117 54 27 54H2.07692C0.929872 54 0 53.0701 0 51.9231V2.07692Z" fill="#282828"/>
<g clip-path="url(#clip0_257_183)">
<path d="M32.5556 26.4442L32.5556 30.8887L34.2222 30.8887C34.6643 30.8887 35.0882 30.7131 35.4008 30.4005C35.7133 30.088 35.8889 29.664 35.8889 29.222L35.8889 19.222C35.8881 19.1188 35.8585 19.0179 35.8036 18.9306C35.7486 18.8433 35.6705 18.773 35.5778 18.7276C35.4885 18.687 35.3901 18.6707 35.2925 18.6805C35.195 18.6902 35.1017 18.7256 35.0223 18.7831L32.1611 20.8887L24.6945 20.8887C24.4839 20.8824 24.2743 20.9195 24.0787 20.9976C23.883 21.0757 23.7055 21.1931 23.557 21.3425C23.4086 21.492 23.2924 21.6704 23.2157 21.8666C23.139 22.0628 23.1034 22.2726 23.1111 22.4831L23.1111 23.1109L29.2222 23.1109C30.1063 23.1109 30.9542 23.4621 31.5793 24.0872C32.2044 24.7123 32.5556 25.5602 32.5556 26.4442Z" fill="white"/>
<path d="M20.3334 29.5001C20.9757 29.4985 21.6097 29.6459 22.1854 29.9306C22.7612 30.2154 23.2631 30.6297 23.6518 31.1411C24.0405 31.6525 24.3053 32.2471 24.4255 32.8781C24.5457 33.5091 24.5179 34.1594 24.3445 34.7778L29.2222 34.7778C29.6643 34.7778 30.0882 34.6022 30.4008 34.2897C30.7133 33.9771 30.8889 33.5532 30.8889 33.1112L30.8889 26.4445C30.8889 26.0025 30.7133 25.5785 30.4008 25.266C30.0882 24.9534 29.6643 24.7778 29.2223 24.7778L21.6945 24.7778L19.0389 22.7167C18.96 22.6584 18.867 22.6219 18.7694 22.6112C18.6718 22.6005 18.5731 22.6158 18.4834 22.6556C18.3888 22.7006 18.3089 22.7715 18.2529 22.8599C18.1969 22.9484 18.167 23.0509 18.1667 23.1556L18.1667 30.1278C18.8169 29.722 19.5669 29.5047 20.3334 29.5001Z" fill="white"/>
<path d="M20.3333 30.8888C18.7992 30.8888 17.5555 32.1324 17.5555 33.6666C17.5555 35.2007 18.7992 36.4443 20.3333 36.4443C21.8674 36.4443 23.1111 35.2007 23.1111 33.6666C23.1111 32.1324 21.8674 30.8888 20.3333 30.8888Z" fill="white"/>
</g>
<defs>
<clipPath id="clip0_257_183">
<rect width="20" height="20" fill="white" transform="translate(37 37) rotate(-180)"/>
</clipPath>
</defs>
</svg>
