<svg width="88" height="46" viewBox="0 0 88 46" fill="none" xmlns="http://www.w3.org/2000/svg">
<path d="M8 17C4.66667 17 2 19.6667 2 23C2 26.3333 4.66667 29 8 29C11.3333 29 14 26.3333 14 23C14 19.6667 11.3333 17 8 17Z" fill="white"/>
<path d="M88 23L68 11.453V34.547L88 23ZM4 23C4 20.7712 5.77124 19 8 19V15C3.5621 15 0 18.5621 0 23H4ZM8 19C10.2288 19 12 20.7712 12 23H16C16 18.5621 12.4379 15 8 15V19ZM12 23C12 25.2288 10.2288 27 8 27V31C12.4379 31 16 27.4379 16 23H12ZM8 27C5.77124 27 4 25.2288 4 23H0C0 27.4379 3.5621 31 8 31V27ZM14 25H70V21H14V25Z" fill="#1877F2"/>
<rect x="29" y="2.5" width="32" height="41" rx="2" fill="white"/>
<rect x="29" y="2.5" width="32" height="41" rx="2" stroke="#1877F2" stroke-width="4"/>
<path d="M47.3651 14.0455V31.5H45.2514V16.2614H45.1491L40.8878 19.0909V16.9432L45.2514 14.0455H47.3651Z" fill="black"/>
</svg>
