<svg width="88" height="46" viewBox="0 0 88 46" fill="none" xmlns="http://www.w3.org/2000/svg">
<path d="M80 17C76.6667 17 74 19.6667 74 23C74 26.3333 76.6667 29 80 29C83.3333 29 86 26.3333 86 23C86 19.6667 83.3333 17 80 17Z" fill="white"/>
<path d="M0 23L20 34.547V11.453L0 23ZM76 23C76 20.7712 77.7712 19 80 19V15C75.5621 15 72 18.5621 72 23H76ZM80 19C82.2288 19 84 20.7712 84 23H88C88 18.5621 84.4379 15 80 15V19ZM84 23C84 25.2288 82.2288 27 80 27V31C84.4379 31 88 27.4379 88 23H84ZM80 27C77.7712 27 76 25.2288 76 23H72C72 27.4379 75.5621 31 80 31V27ZM74 21H18V25H74V21Z" fill="#1877F2"/>
<rect x="25" y="2.5" width="35" height="41" rx="2" fill="white"/>
<rect x="25" y="2.5" width="35" height="41" rx="2" stroke="#1877F2" stroke-width="4"/>
<path d="M42.4606 31.7386C41.4606 31.7386 40.56 31.5398 39.7589 31.142C38.9577 30.7443 38.3157 30.1989 37.8327 29.5057C37.3498 28.8125 37.0856 28.0227 37.0401 27.1364H39.0856C39.1651 27.9261 39.5231 28.5795 40.1594 29.0966C40.8015 29.608 41.5685 29.8636 42.4606 29.8636C43.1765 29.8636 43.8129 29.696 44.3697 29.3608C44.9322 29.0256 45.3725 28.5653 45.6907 27.9801C46.0146 27.3892 46.1765 26.7216 46.1765 25.9773C46.1765 25.2159 46.0089 24.5369 45.6737 23.9403C45.3441 23.3381 44.8896 22.8636 44.31 22.517C43.7305 22.1705 43.0685 21.9943 42.3242 21.9886C41.7901 21.983 41.2418 22.0653 40.6793 22.2358C40.1168 22.4006 39.6538 22.6136 39.2901 22.875L37.3129 22.6364L38.3697 14.0455H47.4379V15.9205H40.1424L39.5288 21.0682H39.631C39.989 20.7841 40.4379 20.5483 40.9776 20.3608C41.5174 20.1733 42.0799 20.0795 42.6651 20.0795C43.7333 20.0795 44.685 20.3352 45.5202 20.8466C46.3612 21.3523 47.0202 22.0455 47.4975 22.9261C47.9805 23.8068 48.2219 24.8125 48.2219 25.9432C48.2219 27.0568 47.9719 28.0511 47.4719 28.9261C46.9776 29.7955 46.2958 30.483 45.4265 30.9886C44.5572 31.4886 43.5685 31.7386 42.4606 31.7386Z" fill="black"/>
</svg>
