<svg width="88" height="46" viewBox="0 0 88 46" fill="none" xmlns="http://www.w3.org/2000/svg">
<path d="M8 17C4.66667 17 2 19.6667 2 23C2 26.3333 4.66667 29 8 29C11.3333 29 14 26.3333 14 23C14 19.6667 11.3333 17 8 17Z" fill="white"/>
<path d="M88 23L68 11.453V34.547L88 23ZM4 23C4 20.7712 5.77124 19 8 19V15C3.5621 15 0 18.5621 0 23H4ZM8 19C10.2288 19 12 20.7712 12 23H16C16 18.5621 12.4379 15 8 15V19ZM12 23C12 25.2288 10.2288 27 8 27V31C12.4379 31 16 27.4379 16 23H12ZM8 27C5.77124 27 4 25.2288 4 23H0C0 27.4379 3.5621 31 8 31V27ZM14 25H70V21H14V25Z" fill="#1877F2"/>
<rect x="27" y="2.5" width="35" height="41" rx="2" fill="white"/>
<rect x="27" y="2.5" width="35" height="41" rx="2" stroke="#1877F2" stroke-width="4"/>
<path d="M39.0412 31.5V29.9659L44.8026 23.6591C45.4787 22.9205 46.0355 22.2784 46.473 21.733C46.9105 21.1818 47.2344 20.6648 47.4446 20.1818C47.6605 19.6932 47.7685 19.1818 47.7685 18.6477C47.7685 18.0341 47.6207 17.5028 47.3253 17.054C47.0355 16.6051 46.6378 16.2585 46.1321 16.0142C45.6264 15.7699 45.0582 15.6477 44.4276 15.6477C43.7571 15.6477 43.1719 15.7869 42.6719 16.0653C42.1776 16.3381 41.794 16.7216 41.5213 17.2159C41.2543 17.7102 41.1207 18.2898 41.1207 18.9545H39.1094C39.1094 17.9318 39.3452 17.0341 39.8168 16.2614C40.2884 15.4886 40.9304 14.8864 41.7429 14.4545C42.5611 14.0227 43.4787 13.8068 44.4957 13.8068C45.5185 13.8068 46.4247 14.0227 47.2145 14.4545C48.0043 14.8864 48.6236 15.4687 49.0724 16.2017C49.5213 16.9347 49.7457 17.75 49.7457 18.6477C49.7457 19.2898 49.6293 19.9176 49.3963 20.5312C49.169 21.1392 48.7713 21.8182 48.2031 22.5682C47.6406 23.3125 46.8594 24.2216 45.8594 25.2955L41.9389 29.4886V29.625H50.0526V31.5H39.0412Z" fill="black"/>
</svg>
