<svg width="88" height="46" viewBox="0 0 88 46" fill="none" xmlns="http://www.w3.org/2000/svg">
<path d="M80 17C76.6667 17 74 19.6667 74 23C74 26.3333 76.6667 29 80 29C83.3333 29 86 26.3333 86 23C86 19.6667 83.3333 17 80 17Z" fill="white"/>
<path d="M0 23L20 34.547V11.453L0 23ZM76 23C76 20.7712 77.7712 19 80 19V15C75.5621 15 72 18.5621 72 23H76ZM80 19C82.2288 19 84 20.7712 84 23H88C88 18.5621 84.4379 15 80 15V19ZM84 23C84 25.2288 82.2288 27 80 27V31C84.4379 31 88 27.4379 88 23H84ZM80 27C77.7712 27 76 25.2288 76 23H72C72 27.4379 75.5621 31 80 31V27ZM74 21H18V25H74V21Z" fill="#1877F2"/>
<rect x="25" y="2.5" width="36" height="41" rx="2" fill="white"/>
<rect x="25" y="2.5" width="36" height="41" rx="2" stroke="#1877F2" stroke-width="4"/>
<path d="M36.6985 27.9205V26.1818L44.369 14.0455H45.6303V16.7386H44.7781L38.9826 25.9091V26.0455H49.3121V27.9205H36.6985ZM44.9144 31.5V27.392V26.5824V14.0455H46.9258V31.5H44.9144Z" fill="black"/>
</svg>
