<svg width="68" height="250" viewBox="0 0 68 250" fill="none" xmlns="http://www.w3.org/2000/svg">
<path d="M8 2C4.66667 2 2 4.66667 2 8C2 11.3333 4.66667 14 8 14C11.3333 14 14 11.3333 14 8C14 4.66667 11.3333 2 8 2Z" fill="white"/>
<path d="M8 238L28 249.547V226.453L8 238ZM4 8C4 5.77124 5.77124 4 8 4V0C3.5621 0 0 3.5621 0 8H4ZM8 4C10.2288 4 12 5.77124 12 8H16C16 3.5621 12.4379 0 8 0V4ZM12 8C12 10.2288 10.2288 12 8 12V16C12.4379 16 16 12.4379 16 8H12ZM8 12C5.77124 12 4 10.2288 4 8H0C0 12.4379 3.5621 16 8 16V12ZM14 10H28V6H14V10ZM46 28V218H50V28H46ZM28 236H26V240H28V236ZM46 218C46 227.941 37.9411 236 28 236V240C40.1503 240 50 230.15 50 218H46ZM28 10C37.9411 10 46 18.0589 46 28H50C50 15.8497 40.1503 6 28 6V10Z" fill="#1877F2"/>
<rect x="30" y="99" width="36" height="41" rx="2" fill="white"/>
<rect x="30" y="99" width="36" height="41" rx="2" stroke="#1877F2" stroke-width="4"/>
<path d="M48.0639 128.239C46.9389 128.239 45.9361 128.045 45.0554 127.659C44.1804 127.273 43.4844 126.736 42.9673 126.048C42.456 125.355 42.1776 124.551 42.1321 123.636H44.2798C44.3253 124.199 44.5185 124.685 44.8594 125.094C45.2003 125.497 45.6463 125.81 46.1974 126.031C46.7486 126.253 47.3594 126.364 48.0298 126.364C48.7798 126.364 49.4446 126.233 50.0241 125.972C50.6037 125.71 51.0582 125.347 51.3878 124.881C51.7173 124.415 51.8821 123.875 51.8821 123.261C51.8821 122.619 51.723 122.054 51.4048 121.565C51.0866 121.071 50.6207 120.685 50.0071 120.406C49.3935 120.128 48.6435 119.989 47.7571 119.989H46.3594V118.114H47.7571C48.4503 118.114 49.0582 117.989 49.581 117.739C50.1094 117.489 50.5213 117.136 50.8168 116.682C51.1179 116.227 51.2685 115.693 51.2685 115.08C51.2685 114.489 51.1378 113.974 50.8764 113.537C50.6151 113.099 50.2457 112.759 49.7685 112.514C49.2969 112.27 48.7401 112.148 48.098 112.148C47.4957 112.148 46.9276 112.259 46.3935 112.48C45.8651 112.696 45.4332 113.011 45.098 113.426C44.7628 113.835 44.581 114.33 44.5526 114.909H42.5071C42.5412 113.994 42.8168 113.193 43.3338 112.506C43.8509 111.812 44.527 111.273 45.3622 110.886C46.2031 110.5 47.1264 110.307 48.1321 110.307C49.2116 110.307 50.1378 110.526 50.9105 110.963C51.6832 111.395 52.277 111.966 52.6918 112.676C53.1065 113.386 53.3139 114.153 53.3139 114.977C53.3139 115.96 53.0554 116.798 52.5384 117.491C52.027 118.185 51.331 118.665 50.4503 118.932V119.068C51.5526 119.25 52.4134 119.719 53.0327 120.474C53.652 121.224 53.9616 122.153 53.9616 123.261C53.9616 124.21 53.7031 125.062 53.1861 125.818C52.6747 126.568 51.9759 127.159 51.0895 127.591C50.2031 128.023 49.1946 128.239 48.0639 128.239Z" fill="black"/>
</svg>
