<svg width="187" height="40" viewBox="0 0 187 40" fill="none" xmlns="http://www.w3.org/2000/svg">
<path d="M29.922 17.828C29.4167 18.3364 29.0297 18.95 28.7887 19.6249C28.5476 20.3 28.4584 21.0199 28.5273 21.7333L28.5033 21.7093C28.5743 22.5492 28.4609 23.3943 28.1715 24.1859C27.882 24.9773 27.4233 25.6961 26.8275 26.2921C26.2315 26.888 25.5127 27.3468 24.7211 27.6361C23.9296 27.9256 23.0844 28.0389 22.2447 27.968L22.2687 27.992C21.2641 27.8985 20.2552 28.1171 19.3793 28.618C18.5036 29.1189 17.8036 29.8777 17.3749 30.7911C16.9463 31.7044 16.8096 32.7276 16.9837 33.7215C17.158 34.7152 17.6344 35.6311 18.3481 36.3441C19.0619 37.0572 19.9781 37.5328 20.972 37.706C21.966 37.8793 22.9891 37.7417 23.902 37.3123C24.8149 36.8827 25.5731 36.1821 26.0732 35.3059C26.5733 34.4296 26.7911 33.4205 26.6967 32.416L26.722 32.44C26.6511 31.6003 26.7643 30.7551 27.0537 29.9635C27.3432 29.172 27.802 28.4532 28.3979 27.8572C28.9939 27.2613 29.7127 26.8025 30.5041 26.5132C31.2957 26.2237 32.1408 26.1104 32.9807 26.1813L32.9553 26.1573C33.7759 26.2311 34.6019 26.0965 35.3567 25.7661C36.1113 25.4357 36.7705 24.9201 37.2729 24.2672C37.7753 23.6143 38.1049 22.8449 38.2308 22.0308C38.3568 21.2165 38.2752 20.3837 37.9936 19.6093C37.712 18.8351 37.2395 18.1444 36.6199 17.6013C36.0003 17.0583 35.2536 16.6804 34.4491 16.5028C33.6445 16.3252 32.8081 16.3535 32.0175 16.5851C31.2268 16.8168 30.5075 17.2443 29.926 17.828H29.922Z" fill="#1877F2"/>
<path d="M20.086 24.848L20.0607 24.824C20.7744 24.8958 21.4952 24.8082 22.1711 24.5674C22.8468 24.3266 23.4607 23.9388 23.9682 23.4317C24.4755 22.9246 24.864 22.311 25.1052 21.6354C25.3466 20.9598 25.4347 20.2392 25.3634 19.5253L25.3887 19.5493C25.3178 18.7094 25.4311 17.8644 25.7204 17.0728C26.0099 16.2813 26.4687 15.5625 27.0646 14.9665C27.6606 14.3706 28.3794 13.9118 29.1708 13.6225C29.9624 13.333 30.8075 13.2197 31.6474 13.2906L31.622 13.2666C32.6267 13.361 33.6359 13.1431 34.5122 12.6428C35.3886 12.1424 36.0891 11.3839 36.5184 10.4708C36.9478 9.55761 37.085 8.53423 36.9114 7.54022C36.7378 6.54621 36.2618 5.62997 35.5482 4.91645C34.8347 4.20294 33.9184 3.72689 32.9244 3.55326C31.9304 3.37962 30.9071 3.51683 29.9939 3.94619C29.0807 4.37554 28.3223 5.07614 27.8219 5.95242C27.3215 6.82869 27.1036 7.83798 27.198 8.84262L27.174 8.81729C27.2451 9.65714 27.132 10.5024 26.8427 11.294C26.5534 12.0856 26.0946 12.8046 25.4987 13.4006C24.9027 13.9965 24.1838 14.4553 23.3922 14.7446C22.6004 15.034 21.7552 15.147 20.9154 15.076L20.9394 15.1013C20.2256 15.0294 19.5047 15.117 18.829 15.3578C18.1532 15.5985 17.5394 15.9865 17.0319 16.4936C16.5244 17.0006 16.136 17.6142 15.8947 18.2898C15.6535 18.9654 15.5654 19.6861 15.6367 20.4L15.6127 20.376C15.6834 21.2157 15.5699 22.0608 15.2804 22.8522C14.9908 23.6436 14.5322 24.3624 13.9363 24.9582C13.3404 25.5541 12.6217 26.0128 11.8302 26.3024C11.0388 26.5918 10.1938 26.7053 9.35403 26.6346L9.37803 26.6586C8.37339 26.5642 7.3641 26.7821 6.48782 27.2825C5.61155 27.7829 4.91095 28.5413 4.48161 29.4545C4.05225 30.3677 3.91502 31.391 4.08866 32.385C4.2623 33.379 4.73835 34.2953 5.45186 35.0088C6.16538 35.7224 7.08162 36.1984 8.07563 36.372C9.06965 36.5456 10.093 36.4084 11.0062 35.979C11.9193 35.5497 12.6778 34.8492 13.1782 33.9729C13.6786 33.0965 13.8964 32.0873 13.802 31.0826L13.8274 31.1066C13.7564 30.2668 13.8698 29.4217 14.1592 28.6301C14.4486 27.8386 14.9074 27.1198 15.5032 26.5238C16.0992 25.928 16.818 25.4692 17.6095 25.1798C18.4011 24.8904 19.2462 24.777 20.086 24.848Z" fill="#1877F2"/>
<path d="M11.15 22.172C11.6554 21.6637 12.0423 21.0501 12.2831 20.375C12.524 19.7 12.6129 18.98 12.5434 18.2666L12.5687 18.2906C12.4977 17.4506 12.611 16.6052 12.9006 15.8134C13.1903 15.0217 13.6492 14.3028 14.2455 13.7068C14.8418 13.1108 15.5608 12.6521 16.3527 12.3629C17.1446 12.0736 17.99 11.9607 18.83 12.032L18.8047 12.008C19.809 12.1021 20.8179 11.8841 21.6938 11.3837C22.5696 10.8834 23.2698 10.1251 23.699 9.21227C24.128 8.29939 24.2651 7.27639 24.0915 6.28275C23.9179 5.28911 23.4419 4.37321 22.7287 3.65996C22.0155 2.94671 21.0995 2.47081 20.1059 2.29719C19.1123 2.12355 18.0892 2.26064 17.1764 2.68973C16.2635 3.11883 15.5052 3.81905 15.005 4.69492C14.5046 5.57079 14.2866 6.57967 14.3807 7.58396L14.3567 7.55996C14.4276 8.39976 14.3143 9.24492 14.0248 10.0364C13.7354 10.828 13.2767 11.5468 12.6808 12.1427C12.0848 12.7387 11.366 13.1974 10.5745 13.4868C9.78297 13.7762 8.93783 13.8896 8.09803 13.8186L8.12203 13.8426C7.30145 13.769 6.47557 13.9038 5.72093 14.2344C4.96629 14.5649 4.30729 15.0806 3.80501 15.7337C3.30273 16.3866 2.97343 17.156 2.84759 17.9701C2.72176 18.7844 2.80348 19.6172 3.08517 20.3913C3.36687 21.1656 3.83944 21.8561 4.45908 22.399C5.07872 22.9421 5.82539 23.3198 6.62989 23.4974C7.43439 23.6749 8.27069 23.6465 9.06132 23.4149C9.85193 23.1832 10.5713 22.7557 11.1527 22.172H11.15Z" fill="#1877F2"/>
<path d="M52.4527 8.87329H56.4127V28.144H52.4527V8.87329Z" fill="#1877F2"/>
<path d="M58.6553 21.5453C58.6499 20.1605 59.0555 18.8051 59.8208 17.6509C60.5861 16.4968 61.6768 15.5957 62.9547 15.062C64.2325 14.5281 65.64 14.3856 66.9989 14.6524C68.3579 14.9192 69.6071 15.5832 70.5883 16.5605C71.5695 17.5377 72.2385 18.7843 72.5108 20.1421C72.7831 21.5 72.6461 22.9081 72.1175 24.1881C71.5888 25.468 70.6921 26.5624 69.5411 27.3323C68.3899 28.1023 67.0363 28.5133 65.6513 28.5133C64.7321 28.5239 63.82 28.3509 62.9683 28.0048C62.1165 27.6587 61.3424 27.1463 60.6911 26.4976C60.0396 25.8488 59.5241 25.0767 59.1747 24.2264C58.8251 23.3761 58.6485 22.4647 58.6553 21.5453ZM68.6873 21.5453C68.6708 20.9484 68.4787 20.3696 68.1351 19.8812C67.7913 19.3929 67.3113 19.0167 66.7551 18.7997C66.1987 18.5827 65.5908 18.5344 65.0072 18.6611C64.4236 18.7877 63.8903 19.0835 63.4739 19.5116C63.0576 19.9396 62.7765 20.4809 62.6663 21.0679C62.5559 21.6547 62.6208 22.2611 62.8532 22.8112C63.0856 23.3613 63.4749 23.8307 63.9725 24.1607C64.4703 24.4907 65.0543 24.6667 65.6513 24.6667C66.0603 24.6776 66.4671 24.6036 66.8461 24.4495C67.2251 24.2953 67.568 24.0644 67.8532 23.7712C68.1384 23.4779 68.3599 23.1287 68.5033 22.7456C68.6469 22.3625 68.7096 21.9539 68.6873 21.5453Z" fill="#1877F2"/>
<path d="M88.4301 14.9454V27.4787C88.4301 31.9134 84.9714 33.788 81.4607 33.788C80.2247 33.8806 78.987 33.6308 77.8834 33.0664C76.7799 32.5019 75.8531 31.6444 75.2047 30.588L78.5834 28.6347C78.8559 29.1854 79.2902 29.6396 79.8279 29.9368C80.3658 30.2339 80.9815 30.3598 81.5927 30.2974C81.9834 30.3515 82.3813 30.3171 82.7569 30.1967C83.1323 30.0763 83.4761 29.873 83.7625 29.6019C84.0489 29.3307 84.2706 28.9987 84.4114 28.6302C84.552 28.2618 84.6081 27.8664 84.5754 27.4734V26.2667C84.1117 26.834 83.5215 27.2848 82.8521 27.5828C82.1826 27.8808 81.4527 28.0178 80.7207 27.9827C78.9791 27.9278 77.3272 27.1974 76.1147 25.9459C74.9022 24.6946 74.2242 23.0204 74.2242 21.278C74.2242 19.5356 74.9022 17.8615 76.1147 16.6102C77.3272 15.3587 78.9791 14.6283 80.7207 14.5734C81.4527 14.5383 82.1826 14.6752 82.8521 14.9732C83.5215 15.2712 84.1117 15.722 84.5754 16.2894V14.9427L88.4301 14.9454ZM84.5767 21.28C84.6034 20.6419 84.4383 20.0103 84.103 19.4667C83.7676 18.923 83.2772 18.4922 82.695 18.2296C82.1127 17.967 81.4653 17.8847 80.8358 17.9932C80.2063 18.1018 79.6238 18.3962 79.163 18.8387C78.7023 19.2811 78.3846 19.8512 78.2506 20.4758C78.1167 21.1003 78.1727 21.7507 78.4117 22.3431C78.6505 22.9355 79.0611 23.443 79.5907 23.8C80.1203 24.1571 80.7447 24.3475 81.3834 24.3467C81.7995 24.3758 82.217 24.3174 82.6091 24.1752C83.0012 24.0331 83.3593 23.8103 83.66 23.5215C83.9608 23.2326 84.1979 22.8839 84.3558 22.4978C84.5137 22.1118 84.589 21.697 84.5767 21.28Z" fill="#1877F2"/>
<path d="M90.6727 21.5453C90.6672 20.1605 91.0727 18.8051 91.8381 17.6509C92.6035 16.4968 93.6941 15.5957 94.972 15.062C96.2499 14.5281 97.6573 14.3856 99.0163 14.6524C100.375 14.9192 101.624 15.5832 102.606 16.5605C103.587 17.5377 104.256 18.7843 104.528 20.1421C104.8 21.5 104.663 22.9081 104.135 24.1881C103.606 25.468 102.709 26.5624 101.558 27.3323C100.407 28.1023 99.0536 28.5133 97.6687 28.5133C96.7495 28.5239 95.8372 28.3509 94.9856 28.0048C94.1339 27.6587 93.3597 27.1463 92.7084 26.4976C92.0569 25.8488 91.5415 25.0767 91.192 24.2264C90.8424 23.3761 90.6659 22.4647 90.6727 21.5453ZM100.705 21.5453C100.688 20.9484 100.496 20.3696 100.152 19.8812C99.8087 19.3929 99.3287 19.0167 98.7724 18.7997C98.216 18.5827 97.608 18.5344 97.0245 18.6611C96.4409 18.7877 95.9076 19.0835 95.4912 19.5116C95.0749 19.9396 94.7939 20.4809 94.6835 21.0679C94.5731 21.6547 94.6381 22.2611 94.8705 22.8112C95.1029 23.3613 95.4923 23.8307 95.9899 24.1607C96.4876 24.4907 97.0715 24.6667 97.6687 24.6667C98.0776 24.6776 98.4844 24.6036 98.8633 24.4495C99.2424 24.2953 99.5853 24.0644 99.8705 23.7712C100.156 23.4779 100.377 23.1287 100.521 22.7456C100.664 22.3625 100.727 21.9539 100.705 21.5453Z" fill="#1877F2"/>
<path d="M106.511 11.408C106.511 10.9381 106.651 10.4787 106.912 10.088C107.173 9.69723 107.544 9.39268 107.978 9.21285C108.412 9.03301 108.89 8.98596 109.351 9.07764C109.812 9.16932 110.235 9.39561 110.567 9.72791C110.9 10.0602 111.126 10.4835 111.218 10.9445C111.309 11.4053 111.262 11.8831 111.083 12.3172C110.903 12.7514 110.598 13.1225 110.207 13.3836C109.817 13.6447 109.357 13.784 108.887 13.784C108.259 13.7777 107.658 13.5255 107.214 13.0812C106.77 12.6369 106.518 12.0362 106.511 11.408ZM106.911 14.9453H110.873V28.1453H106.906L106.911 14.9453Z" fill="#1877F2"/>
<path d="M127.971 21.5453C128.017 22.4177 127.89 23.2905 127.597 24.1136C127.305 24.9366 126.852 25.6937 126.266 26.3413C125.679 26.9888 124.971 27.5141 124.181 27.8869C123.391 28.2596 122.535 28.4725 121.662 28.5133C120.928 28.5533 120.195 28.4296 119.515 28.151C118.834 27.8724 118.225 27.446 117.73 26.9026V33.424H113.77V14.9453H117.73V16.1853C118.225 15.6424 118.835 15.2162 119.515 14.938C120.195 14.6596 120.928 14.536 121.662 14.576C122.535 14.6166 123.391 14.8294 124.181 15.2022C124.971 15.575 125.68 16.1004 126.267 16.7481C126.853 17.3958 127.305 18.1532 127.598 18.9765C127.891 19.7997 128.017 20.6728 127.971 21.5453ZM124.011 21.5453C123.996 20.9276 123.799 20.3281 123.444 19.8218C123.089 19.3157 122.594 18.9253 122.018 18.6997C121.443 18.474 120.814 18.4229 120.21 18.553C119.606 18.683 119.053 18.9884 118.622 19.4308C118.191 19.8733 117.899 20.433 117.784 21.0404C117.67 21.6476 117.736 22.275 117.977 22.8445C118.217 23.414 118.619 23.8998 119.134 24.2416C119.649 24.5832 120.253 24.7654 120.871 24.7653C121.296 24.7842 121.719 24.7132 122.114 24.5569C122.509 24.4008 122.866 24.1628 123.163 23.8588C123.459 23.5546 123.688 23.1914 123.834 22.7928C123.981 22.3941 124.041 21.9689 124.011 21.5453Z" fill="#1877F2"/>
<path d="M140.191 24.184C140.191 27.22 137.553 28.5133 134.702 28.5133C133.55 28.6176 132.394 28.3741 131.382 27.814C130.37 27.254 129.549 26.4033 129.026 25.372L132.457 23.4187C132.595 23.8953 132.894 24.3101 133.301 24.5935C133.709 24.8769 134.202 25.012 134.697 24.976C135.646 24.976 136.122 24.6853 136.122 24.1587C136.122 22.7053 129.627 23.472 129.627 18.9053C129.627 16.0267 132.057 14.576 134.802 14.576C135.834 14.5433 136.855 14.7881 137.761 15.2848C138.666 15.7816 139.422 16.512 139.949 17.4L136.57 19.2213C136.422 18.8756 136.175 18.5811 135.861 18.3745C135.546 18.168 135.178 18.0587 134.802 18.06C134.115 18.06 133.693 18.3267 133.693 18.7987C133.698 20.304 140.191 19.3 140.191 24.184Z" fill="#1877F2"/>
<path d="M154.657 14.9453V28.1453H150.697V26.904C150.239 27.4517 149.659 27.8833 149.003 28.1633C148.347 28.4433 147.635 28.5637 146.923 28.5146C144.257 28.5146 141.99 26.6146 141.99 23.048V14.9453H145.95V22.468C145.917 22.7824 145.953 23.1002 146.055 23.3993C146.157 23.6985 146.323 23.9718 146.542 24.2002C146.761 24.4286 147.026 24.6066 147.321 24.722C147.614 24.8373 147.93 24.8872 148.246 24.868C149.698 24.868 150.701 24.024 150.701 22.1493V14.9493L154.657 14.9453Z" fill="#1877F2"/>
<path d="M177.363 20.04V28.144H173.403V20.3826C173.403 19.0626 172.77 18.2186 171.503 18.2186C170.183 18.2186 169.443 19.1426 169.443 20.7V28.144H165.485V20.3826C165.485 19.0626 164.851 18.2186 163.583 18.2186C162.263 18.2186 161.525 19.1426 161.525 20.7V28.144H157.565V14.944H161.525V16.1573C161.935 15.619 162.474 15.1921 163.091 14.9157C163.71 14.6392 164.387 14.522 165.062 14.5746C165.739 14.5414 166.414 14.6845 167.021 14.9897C167.626 15.2948 168.142 15.7518 168.519 16.316C168.958 15.7257 169.539 15.2564 170.209 14.9518C170.878 14.6473 171.614 14.5176 172.347 14.5746C175.378 14.576 177.363 16.74 177.363 20.04Z" fill="#1877F2"/>
<path d="M180.713 14.864C182.335 14.864 183.651 13.5483 183.651 11.9254C183.651 10.3024 182.335 8.98669 180.713 8.98669C179.09 8.98669 177.774 10.3024 177.774 11.9254C177.774 13.5483 179.09 14.864 180.713 14.864Z" fill="#1877F2"/>
</svg>
