<svg width="156" height="40" viewBox="0 0 156 40" fill="none" xmlns="http://www.w3.org/2000/svg">
<g clip-path="url(#clip0_233_323)">
<path d="M52.4356 10.2839H48.8535V26.4472H58.7699V23.2801H52.4356V10.2839Z" fill="#9B9B9B"/>
<path d="M59.112 20.9648C59.112 24.4159 61.4273 26.7093 64.922 26.7093C68.3949 26.7093 70.7102 24.4159 70.7102 20.9648C70.7102 17.5137 68.3949 15.1984 64.922 15.1984C61.4273 15.1984 59.112 17.5137 59.112 20.9648ZM62.4975 20.9429C62.4975 19.3048 63.4586 18.2127 64.922 18.2127C66.3636 18.2127 67.3247 19.3048 67.3247 20.9429C67.3247 22.603 66.3636 23.6951 64.922 23.6951C63.4586 23.6951 62.4975 22.603 62.4975 20.9429Z" fill="#9B9B9B"/>
<path d="M71.2513 20.7901C71.2513 24.0882 73.3919 26.3161 76.4279 26.3161C77.8914 26.3161 79.1582 25.7919 79.7916 24.9401V26.4472C79.7916 27.9543 78.8524 28.959 77.1924 28.959C75.7071 28.959 74.6805 28.2601 74.615 27.0151H71.2076C71.5134 30.0075 73.8287 32.0169 76.9958 32.0169C80.7308 32.0169 83.0898 29.5925 83.0898 25.7482V15.5261H80.0537L79.879 16.64C79.2674 15.7445 77.9787 15.1548 76.4935 15.1548C73.4355 15.1548 71.2513 17.4482 71.2513 20.7901ZM74.6587 20.7027C74.6587 19.13 75.7071 18.0816 77.0395 18.0816C78.5903 18.0816 79.7261 19.1082 79.7261 20.7027C79.7261 22.2972 78.6121 23.3893 77.0613 23.3893C75.729 23.3893 74.6587 22.2972 74.6587 20.7027Z" fill="#9B9B9B"/>
<path d="M84.0701 20.9648C84.0701 24.4159 86.3854 26.7093 89.8802 26.7093C93.3531 26.7093 95.6683 24.4159 95.6683 20.9648C95.6683 17.5137 93.3531 15.1984 89.8802 15.1984C86.3854 15.1984 84.0701 17.5137 84.0701 20.9648ZM87.4557 20.9429C87.4557 19.3048 88.4167 18.2127 89.8802 18.2127C91.3217 18.2127 92.2828 19.3048 92.2828 20.9429C92.2828 22.603 91.3217 23.6951 89.8802 23.6951C88.4167 23.6951 87.4557 22.603 87.4557 20.9429Z" fill="#9B9B9B"/>
<path d="M98.5684 13.8224C99.6168 13.8224 100.469 12.9705 100.469 11.9003C100.469 10.83 99.6168 10 98.5684 10C97.4981 10 96.6463 10.83 96.6463 11.9003C96.6463 12.9705 97.4981 13.8224 98.5684 13.8224ZM96.8647 26.4472H100.25V15.5261H96.8647V26.4472Z" fill="#9B9B9B"/>
<path d="M102.221 31.6893H105.542V25.3551C106.175 26.1851 107.616 26.753 109.123 26.753C112.377 26.753 114.344 24.263 114.257 20.8119C114.168 17.2953 112.138 15.1766 109.102 15.1766C107.551 15.1766 106.088 15.8537 105.476 16.8585L105.3 15.5261H102.221V31.6893ZM105.606 20.9866C105.606 19.3485 106.698 18.2564 108.271 18.2564C109.865 18.2564 110.87 19.3703 110.87 20.9866C110.87 22.603 109.865 23.7169 108.271 23.7169C106.698 23.7169 105.606 22.6248 105.606 20.9866Z" fill="#9B9B9B"/>
<path d="M114.615 22.9961C114.702 25.2022 116.449 26.7311 119.201 26.7311C121.844 26.7311 123.679 25.3332 123.679 23.0835C123.679 21.4672 122.718 20.3969 120.926 19.96L118.983 19.4795C118.284 19.3048 117.848 19.13 117.848 18.5621C117.848 17.9942 118.305 17.6229 118.983 17.6229C119.747 17.6229 120.25 18.1253 120.229 18.8679H123.265C123.177 16.5963 121.451 15.1766 119.049 15.1766C116.625 15.1766 114.812 16.6182 114.812 18.8024C114.812 20.2658 115.62 21.4672 117.782 22.0351L119.703 22.5374C120.271 22.6903 120.511 22.9524 120.511 23.3237C120.511 23.8698 120.01 24.2193 119.158 24.2193C118.175 24.2193 117.65 23.7606 117.65 22.9961H114.615Z" fill="#9B9B9B"/>
<path d="M128.828 26.7311C130.161 26.7311 131.493 26.1195 132.17 25.224L132.389 26.4472H135.556V15.5261H132.192V21.2051C132.192 22.8432 131.712 23.7387 130.161 23.7387C128.959 23.7387 128.173 23.1927 128.173 21.1614V15.5261H124.809V22.3845C124.809 24.9838 126.251 26.7311 128.828 26.7311Z" fill="#9B9B9B"/>
<path d="M140.89 26.4472V20.4843C140.89 18.6495 141.873 18.1253 142.834 18.1253C143.904 18.1253 144.603 18.7806 144.603 20.1348V26.4472H147.923V20.4843C147.923 18.6277 148.884 18.1035 149.845 18.1035C150.915 18.1035 151.636 18.7587 151.636 20.1348V26.4472H154.913V19.3048C154.913 16.8148 153.602 15.1548 150.784 15.1548C149.212 15.1548 147.923 15.9192 147.355 17.0987C146.7 15.9192 145.564 15.1548 143.751 15.1548C142.55 15.1548 141.436 15.7008 140.781 16.5745L140.65 15.5261H137.504V26.4472H140.89Z" fill="#9B9B9B"/>
<path d="M0.853516 20C0.853516 10.5719 0.853516 5.85786 3.78245 2.92893C6.71138 0 11.4254 0 20.8535 0C30.2816 0 34.9956 0 37.9246 2.92893C40.8535 5.85786 40.8535 10.5719 40.8535 20C40.8535 29.4281 40.8535 34.1421 37.9246 37.0711C34.9956 40 30.2816 40 20.8535 40C11.4254 40 6.71138 40 3.78245 37.0711C0.853516 34.1421 0.853516 29.4281 0.853516 20Z" fill="#9B9B9B"/>
<path d="M24.8535 26C25.4058 26 25.8636 26.4521 25.7539 26.9934C25.56 27.9494 25.089 28.8355 24.389 29.5355C23.4514 30.4732 22.1796 31 20.8535 31C19.5274 31 18.2557 30.4732 17.318 29.5355C16.618 28.8355 16.147 27.9494 15.9532 26.9934C15.8434 26.4521 16.3012 26 16.8535 26H24.8535Z" fill="white"/>
<path d="M26.9558 17.7765C26.4223 17.9194 26.0956 18.4775 26.3661 18.959C26.6508 19.4658 27.0446 19.9081 27.5237 20.2514C28.2759 20.7904 29.1917 21.052 30.1152 20.9914C31.0386 20.9309 31.9125 20.5521 32.5879 19.9195C33.2634 19.2869 33.6985 18.4396 33.8193 17.5221C33.9401 16.6046 33.7391 15.6736 33.2504 14.8877C32.7617 14.1019 32.0156 13.5098 31.1393 13.2123C30.263 12.9148 29.3107 12.9304 28.4446 13.2564C27.893 13.464 27.3982 13.7893 26.992 14.2051C26.6061 14.6002 26.7772 15.2239 27.2555 15.5L27.7628 15.7929C28.5343 16.2384 28.3822 17.3943 27.5216 17.6249L26.9558 17.7765Z" fill="white"/>
<path d="M14.7513 17.7765C15.2848 17.9194 15.6115 18.4775 15.341 18.959C15.0563 19.4658 14.6625 19.9081 14.1835 20.2514C13.4313 20.7904 12.5154 21.052 11.592 20.9914C10.6685 20.9309 9.79465 20.5521 9.11922 19.9195C8.44379 19.2869 8.00859 18.4396 7.8878 17.5221C7.76701 16.6046 7.96808 15.6736 8.45677 14.8877C8.94545 14.1019 9.69151 13.5098 10.5678 13.2123C11.4441 12.9148 12.3965 12.9304 13.2626 13.2564C13.8141 13.464 14.309 13.7893 14.7152 14.2051C15.1011 14.6002 14.9299 15.2239 14.4516 15.5L13.9443 15.7929C13.1728 16.2384 13.325 17.3943 14.1855 17.6249L14.7513 17.7765Z" fill="white"/>
</g>
<defs>
<clipPath id="clip0_233_323">
<rect width="155" height="40" fill="white" transform="translate(0.853516)"/>
</clipPath>
</defs>
</svg>
