<svg width="183" height="40" viewBox="0 0 183 40" fill="none" xmlns="http://www.w3.org/2000/svg">
<path d="M53.9234 26.6957C53.9234 27.5689 53.7441 28.2398 53.3856 28.7085C53.0364 29.1774 52.4528 29.4117 51.6348 29.4117C50.8627 29.4117 50.3159 29.1774 49.9941 28.7085C49.6816 28.2398 49.5254 27.5689 49.5254 26.6957V12.1231C49.5254 11.2499 49.6816 10.579 49.9941 10.1102C50.3159 9.64148 50.8627 9.4071 51.6348 9.4071C52.4528 9.4071 53.0364 9.64148 53.3856 10.1102C53.7441 10.579 53.9234 11.2499 53.9234 12.1231V26.6957Z" fill="#9B9B9B"/>
<path d="M55.2585 22.4633C55.2585 21.489 55.4147 20.5699 55.7273 19.7059C56.049 18.8327 56.5268 18.0699 57.1611 17.4173C57.8045 16.7647 58.6041 16.2455 59.56 15.8595C60.5251 15.4733 61.6555 15.2804 62.9515 15.2804C64.1924 15.2804 65.2907 15.4596 66.2466 15.818C67.2025 16.1765 68.0067 16.6775 68.6592 17.3209C69.3118 17.955 69.8081 18.7132 70.1482 19.5956C70.4882 20.4687 70.6584 21.4246 70.6584 22.4633C70.6584 23.4284 70.4974 24.3429 70.1758 25.2069C69.8541 26.0616 69.3715 26.8153 68.7281 27.4679C68.0848 28.1112 67.2806 28.6259 66.3155 29.012C65.3504 29.3889 64.2291 29.5772 62.9515 29.5772C61.6924 29.5772 60.5802 29.398 59.6151 29.0396C58.6592 28.6719 57.8551 28.171 57.2025 27.5367C56.5591 26.8935 56.0719 26.1398 55.7411 25.2758C55.4193 24.4026 55.2585 23.4651 55.2585 22.4633ZM59.8495 22.4633C59.8495 23.0699 59.9046 23.649 60.015 24.2004C60.1252 24.7426 60.2999 25.2206 60.5388 25.6343C60.787 26.0478 61.1087 26.3787 61.5039 26.6269C61.8992 26.8658 62.3817 26.9853 62.9515 26.9853C63.4754 26.9853 63.9304 26.8751 64.3164 26.6544C64.7117 26.4339 65.0333 26.1259 65.2815 25.7307C65.5388 25.3356 65.7319 24.8622 65.8605 24.3107C65.9892 23.75 66.0535 23.1343 66.0535 22.4633C66.0535 21.8566 65.9938 21.2822 65.8744 20.7399C65.764 20.1885 65.5848 19.7059 65.3366 19.2923C65.0885 18.8696 64.7668 18.5386 64.3715 18.2997C63.9855 18.0516 63.5121 17.9275 62.9515 17.9275C62.3908 17.9275 61.913 18.0469 61.5177 18.2859C61.1225 18.5249 60.8008 18.8511 60.5526 19.2647C60.3045 19.6784 60.1252 20.1609 60.015 20.7124C59.9046 21.2638 59.8495 21.8475 59.8495 22.4633Z" fill="#9B9B9B"/>
<path d="M81.975 26.7509C81.7268 27.2104 81.4235 27.601 81.065 27.9228C80.7158 28.2444 80.3251 28.511 79.8932 28.7225C79.4704 28.9246 79.0155 29.0762 78.5283 29.1774C78.0503 29.2693 77.5587 29.3153 77.0531 29.3153C76.2075 29.3153 75.4355 29.1636 74.7369 28.8602C74.0384 28.5569 73.4364 28.1203 72.9309 27.5506C72.4345 26.9715 72.0485 26.2637 71.7728 25.4274C71.497 24.5909 71.3591 23.635 71.3591 22.5597C71.3591 21.5487 71.4878 20.602 71.7453 19.7196C72.0025 18.8373 72.3748 18.0699 72.862 17.4173C73.3583 16.7647 73.9649 16.25 74.6818 15.8732C75.3987 15.4963 76.2168 15.3079 77.1358 15.3079C78.1836 15.3079 79.112 15.5101 79.9208 15.9144C80.7388 16.3189 81.442 16.9807 82.0302 17.8997V17.5414C82.0302 16.8796 82.2094 16.3833 82.5678 16.0523C82.9355 15.7123 83.441 15.5422 84.0844 15.5422C84.4704 15.5422 84.7967 15.6066 85.0633 15.7353C85.3297 15.8548 85.5411 16.0386 85.6974 16.2868C85.8537 16.5257 85.964 16.8245 86.0283 17.1829C86.1018 17.5321 86.1385 17.932 86.1385 18.3823V27.6195C86.1385 28.7408 85.9962 29.7426 85.7112 30.6249C85.4355 31.5073 85.0035 32.2519 84.4152 32.8584C83.827 33.465 83.0734 33.9246 82.1542 34.2372C81.2351 34.5588 80.1414 34.7196 78.873 34.7196C77.9815 34.7196 77.191 34.6783 76.5016 34.5955C75.8215 34.5221 75.2332 34.4072 74.7369 34.2509C74.2407 34.0762 73.8638 33.8833 73.6064 33.6719C73.3583 33.4604 73.2342 33.1847 73.2342 32.8447C73.2342 32.6516 73.2617 32.4679 73.3169 32.2932C73.3721 32.1186 73.4548 31.9623 73.565 31.8244C73.6845 31.6957 73.8362 31.5901 74.0201 31.5073C74.213 31.4339 74.4474 31.397 74.7231 31.397C75.0173 31.397 75.3114 31.4154 75.6055 31.4522C75.9088 31.4889 76.2214 31.5257 76.543 31.5624C76.8738 31.6084 77.2185 31.6497 77.577 31.6866C77.9447 31.7233 78.3398 31.7417 78.7627 31.7417C79.2682 31.7417 79.7185 31.6912 80.1138 31.5901C80.509 31.4889 80.8444 31.3097 81.1202 31.0523C81.396 30.795 81.6074 30.4503 81.7544 30.0183C81.9015 29.5955 81.975 29.0533 81.975 28.3915V26.7509ZM81.975 22.4633C81.975 21.7922 81.9244 21.181 81.8234 20.6296C81.7315 20.0781 81.5705 19.6094 81.3408 19.2233C81.111 18.8281 80.8031 18.5248 80.4171 18.3134C80.031 18.0928 79.5485 17.9826 78.9695 17.9826C78.3996 17.9826 77.9263 18.0974 77.5495 18.3272C77.1818 18.5569 76.8877 18.8741 76.6671 19.2784C76.4465 19.6829 76.2903 20.1562 76.1983 20.6986C76.1156 21.2408 76.0743 21.8199 76.0743 22.4356C76.0743 23.8419 76.3224 24.8989 76.8188 25.6066C77.315 26.3143 78.0365 26.6682 78.9833 26.6682C79.4244 26.659 79.8243 26.5762 80.1827 26.42C80.5503 26.2546 80.8675 26.0019 81.134 25.6617C81.4005 25.3216 81.6074 24.8896 81.7544 24.3657C81.9015 23.8419 81.975 23.2077 81.975 22.4633Z" fill="#9B9B9B"/>
<path d="M87.4048 22.4633C87.4048 21.489 87.561 20.5699 87.8735 19.7059C88.1953 18.8327 88.6731 18.0699 89.3074 17.4173C89.9508 16.7647 90.7503 16.2455 91.7062 15.8595C92.6714 15.4733 93.8018 15.2804 95.0978 15.2804C96.3385 15.2804 97.4369 15.4596 98.3928 15.818C99.3487 16.1765 100.153 16.6775 100.805 17.3209C101.458 17.955 101.954 18.7132 102.294 19.5956C102.635 20.4687 102.805 21.4246 102.805 22.4633C102.805 23.4284 102.644 24.3429 102.322 25.2069C102 26.0616 101.518 26.8153 100.874 27.4679C100.231 28.1112 99.4268 28.6259 98.4617 29.012C97.4967 29.3889 96.3754 29.5772 95.0978 29.5772C93.8385 29.5772 92.7264 29.398 91.7614 29.0396C90.8055 28.6719 90.0013 28.171 89.3487 27.5367C88.7054 26.8935 88.2182 26.1398 87.8873 25.2758C87.5656 24.4026 87.4048 23.4651 87.4048 22.4633ZM91.9957 22.4633C91.9957 23.0699 92.0509 23.649 92.1613 24.2004C92.2715 24.7426 92.4461 25.2206 92.6851 25.6343C92.9333 26.0478 93.2549 26.3787 93.6502 26.6269C94.0454 26.8658 94.528 26.9853 95.0978 26.9853C95.6217 26.9853 96.0767 26.8751 96.4627 26.6544C96.8578 26.4339 97.1796 26.1259 97.4277 25.7307C97.6851 25.3356 97.8781 24.8622 98.0068 24.3107C98.1355 23.75 98.1998 23.1343 98.1998 22.4633C98.1998 21.8566 98.1401 21.2822 98.0205 20.7399C97.9103 20.1885 97.731 19.7059 97.4829 19.2923C97.2348 18.8696 96.913 18.5386 96.5178 18.2997C96.1318 18.0516 95.6584 17.9275 95.0978 17.9275C94.5371 17.9275 94.0591 18.0469 93.664 18.2859C93.2688 18.5249 92.947 18.8511 92.6989 19.2647C92.4508 19.6784 92.2715 20.1609 92.1613 20.7124C92.0509 21.2638 91.9957 21.8475 91.9957 22.4633Z" fill="#9B9B9B"/>
<path d="M108.717 10.6342C108.717 10.9375 108.648 11.2086 108.51 11.4476C108.372 11.6774 108.193 11.8703 107.972 12.0267C107.752 12.1829 107.494 12.3023 107.2 12.385C106.916 12.4586 106.621 12.4954 106.318 12.4954C105.996 12.4954 105.688 12.454 105.394 12.3713C105.109 12.2886 104.857 12.1692 104.636 12.0128C104.416 11.8474 104.241 11.6498 104.112 11.42C103.984 11.1902 103.919 10.9283 103.919 10.6342C103.919 10.3676 103.979 10.1241 104.098 9.90347C104.227 9.6737 104.397 9.47608 104.608 9.31064C104.82 9.1452 105.073 9.01652 105.367 8.92461C105.661 8.8327 105.983 8.78674 106.332 8.78674C106.635 8.78674 106.929 8.82811 107.214 8.91083C107.508 8.99354 107.766 9.11303 107.986 9.26928C108.207 9.42553 108.382 9.61854 108.51 9.84832C108.648 10.0781 108.717 10.34 108.717 10.6342ZM108.51 26.6957C108.51 27.5689 108.331 28.2399 107.972 28.7086C107.623 29.1774 107.04 29.4117 106.222 29.4117C105.45 29.4117 104.903 29.1774 104.581 28.7086C104.268 28.2399 104.112 27.5689 104.112 26.6957V18.2582C104.112 17.385 104.268 16.7141 104.581 16.2454C104.903 15.7767 105.45 15.5422 106.222 15.5422C107.04 15.5422 107.623 15.7767 107.972 16.2454C108.331 16.7141 108.51 17.385 108.51 18.2582V26.6957Z" fill="#9B9B9B"/>
<path d="M114.85 22.4356C114.85 23.0515 114.896 23.6259 114.988 24.159C115.089 24.6921 115.254 25.1608 115.484 25.5653C115.723 25.9604 116.036 26.2729 116.422 26.5027C116.817 26.7326 117.304 26.8474 117.883 26.8474C118.416 26.8474 118.862 26.7372 119.221 26.5166C119.588 26.2868 119.882 25.9742 120.103 25.579C120.323 25.1746 120.479 24.7013 120.571 24.159C120.672 23.6167 120.723 23.0285 120.723 22.3943C120.723 21.8888 120.686 21.3741 120.612 20.8502C120.539 20.317 120.402 19.8346 120.199 19.4026C119.997 18.9706 119.717 18.6167 119.358 18.3409C118.999 18.0653 118.531 17.9274 117.952 17.9274C117.373 17.9274 116.881 18.0193 116.477 18.2032C116.081 18.3869 115.76 18.6673 115.512 19.0441C115.273 19.4209 115.103 19.8943 115.002 20.4641C114.9 21.0248 114.85 21.682 114.85 22.4356ZM114.836 18.2582C115.066 17.7712 115.36 17.3437 115.718 16.9761C116.077 16.6084 116.472 16.3006 116.904 16.0523C117.336 15.8042 117.786 15.6203 118.255 15.5009C118.734 15.3722 119.206 15.3079 119.675 15.3079C120.521 15.3079 121.284 15.4963 121.964 15.8732C122.644 16.25 123.223 16.7647 123.701 17.4173C124.188 18.0607 124.561 18.8235 124.818 19.7059C125.075 20.579 125.204 21.5166 125.204 22.5183C125.204 23.5569 125.065 24.5082 124.79 25.3722C124.524 26.2362 124.142 26.9807 123.645 27.6056C123.158 28.2215 122.57 28.704 121.881 29.0533C121.201 29.4026 120.443 29.5772 119.606 29.5772C118.577 29.5772 117.658 29.3382 116.849 28.8602C116.04 28.3823 115.369 27.7114 114.836 26.8474V31.8107C114.836 32.6837 114.657 33.3548 114.298 33.8235C113.949 34.2922 113.366 34.5267 112.547 34.5267C111.775 34.5267 111.228 34.2922 110.907 33.8235C110.594 33.3548 110.438 32.6837 110.438 31.8107V18.2582C110.438 17.385 110.594 16.7141 110.907 16.2454C111.228 15.7767 111.775 15.5422 112.547 15.5422C113.366 15.5422 113.949 15.7767 114.298 16.2454C114.657 16.7141 114.836 17.385 114.836 18.2582Z" fill="#9B9B9B"/>
<path d="M130.055 19.2372C130.055 19.5956 130.211 19.8759 130.523 20.0782C130.836 20.2712 131.268 20.432 131.819 20.5607C132.343 20.6802 132.881 20.7951 133.432 20.9053C133.984 21.0157 134.522 21.1444 135.045 21.2915C135.569 21.4292 136.061 21.5947 136.521 21.7877C136.979 21.9807 137.384 22.2243 137.734 22.5184C138.083 22.8033 138.358 23.1526 138.561 23.5662C138.763 23.9706 138.864 24.4578 138.864 25.0276C138.864 25.7445 138.717 26.3833 138.423 26.9439C138.129 27.4955 137.711 27.9642 137.169 28.3503C136.636 28.7363 135.997 29.035 135.252 29.2464C134.508 29.4578 133.685 29.568 132.784 29.5772C131.93 29.5772 131.106 29.5222 130.316 29.4118C129.526 29.3107 128.823 29.1498 128.206 28.9292C127.601 28.7086 127.114 28.4376 126.745 28.1158C126.378 27.785 126.195 27.399 126.195 26.9578C126.195 26.5717 126.318 26.273 126.566 26.0616C126.815 25.8503 127.131 25.7445 127.518 25.7445C127.665 25.7445 127.839 25.772 128.042 25.8272C128.244 25.8824 128.464 25.9513 128.703 26.034C128.942 26.1167 129.195 26.2086 129.462 26.3098C129.737 26.4017 130.022 26.4844 130.316 26.5579C130.684 26.6591 131.061 26.7418 131.446 26.8062C131.842 26.8612 132.246 26.8889 132.661 26.8889C132.917 26.8889 133.17 26.8658 133.418 26.8199C133.666 26.7647 133.888 26.6866 134.081 26.5856C134.283 26.4752 134.448 26.3373 134.577 26.1719C134.705 26.0065 134.783 25.8043 134.811 25.5653C134.838 25.5102 134.862 25.455 134.879 25.3998C134.898 25.3447 134.908 25.2804 134.908 25.2069C134.908 24.9495 134.788 24.7197 134.549 24.5175C134.319 24.3153 133.992 24.1544 133.57 24.035C132.862 23.8696 132.186 23.7179 131.543 23.58C130.901 23.4422 130.303 23.2951 129.751 23.1389C129.209 22.9826 128.712 22.8033 128.262 22.6011C127.821 22.399 127.444 22.1507 127.131 21.8566C126.829 21.5625 126.589 21.2086 126.415 20.7951C126.249 20.3815 126.166 19.8805 126.166 19.2923C126.166 18.6582 126.309 18.0929 126.594 17.5965C126.888 17.091 127.306 16.6683 127.849 16.3282C128.391 15.988 129.048 15.7307 129.821 15.5562C130.592 15.3723 131.465 15.2804 132.439 15.2804C134.185 15.2804 135.514 15.4918 136.424 15.9145C137.343 16.3282 137.803 16.8704 137.803 17.5415C137.803 17.9183 137.678 18.2078 137.43 18.4099C137.182 18.603 136.883 18.6995 136.535 18.6995C136.35 18.6995 136.157 18.6673 135.955 18.603C135.762 18.5295 135.528 18.4513 135.252 18.3686C134.976 18.2767 134.645 18.1986 134.259 18.1343C133.883 18.0607 133.413 18.0239 132.853 18.0239C132.43 18.0239 132.044 18.0423 131.695 18.0791C131.355 18.1158 131.061 18.1802 130.812 18.272C130.573 18.364 130.385 18.488 130.248 18.6444C130.118 18.8006 130.055 18.9982 130.055 19.2372Z" fill="#9B9B9B"/>
<path d="M144.459 24.2968C144.459 24.7288 144.515 25.1056 144.625 25.4274C144.744 25.7491 144.905 26.0202 145.108 26.2408C145.31 26.4522 145.544 26.6131 145.81 26.7233C146.086 26.8245 146.381 26.8751 146.692 26.8751C147.061 26.8751 147.415 26.8199 147.755 26.7095C148.095 26.5993 148.394 26.4292 148.651 26.1994C148.917 25.9696 149.129 25.6801 149.285 25.3308C149.441 24.9816 149.519 24.5726 149.519 24.1039V18.2582C149.519 17.3851 149.676 16.7141 149.988 16.2454C150.31 15.7767 150.857 15.5422 151.629 15.5422C152.446 15.5422 153.03 15.7767 153.379 16.2454C153.738 16.7141 153.917 17.3851 153.917 18.2582V26.6958C153.917 27.5689 153.738 28.2399 153.379 28.7086C153.03 29.1774 152.446 29.4118 151.629 29.4118C150.857 29.4118 150.31 29.1774 149.988 28.7086C149.676 28.2399 149.519 27.5689 149.519 26.6958C149.326 27.1186 149.074 27.5046 148.761 27.8539C148.457 28.2032 148.099 28.5065 147.685 28.7638C147.281 29.012 146.831 29.2049 146.335 29.3428C145.848 29.4807 145.318 29.5496 144.749 29.5496C144.134 29.5496 143.541 29.4439 142.97 29.2326C142.41 29.012 141.914 28.6902 141.482 28.2674C141.05 27.8355 140.705 27.3024 140.448 26.6682C140.19 26.034 140.062 25.2941 140.062 24.4485V18.2582C140.062 17.3851 140.218 16.7141 140.53 16.2454C140.852 15.7767 141.398 15.5422 142.171 15.5422C142.989 15.5422 143.572 15.7767 143.922 16.2454C144.281 16.7141 144.459 17.3851 144.459 18.2582V24.2968Z" fill="#9B9B9B"/>
<path d="M155.914 18.2582C155.914 17.385 156.07 16.7141 156.383 16.2454C156.704 15.7767 157.251 15.5422 158.023 15.5422C158.842 15.5422 159.425 15.7767 159.775 16.2454C160.132 16.7141 160.312 17.385 160.312 18.2582C160.496 17.817 160.744 17.4173 161.057 17.0588C161.378 16.6912 161.742 16.3787 162.145 16.1213C162.559 15.864 163.005 15.6663 163.483 15.5284C163.961 15.3814 164.457 15.3079 164.972 15.3079C165.45 15.3079 165.918 15.3722 166.378 15.5009C166.846 15.6203 167.279 15.818 167.675 16.0937C168.078 16.3602 168.432 16.7003 168.736 17.114C169.039 17.5275 169.274 18.0239 169.439 18.6029C169.724 17.9872 170.059 17.4679 170.445 17.045C170.831 16.6222 171.25 16.2821 171.699 16.0248C172.15 15.7674 172.619 15.5836 173.106 15.4733C173.603 15.363 174.098 15.3079 174.595 15.3079C175.183 15.3079 175.744 15.4136 176.277 15.6249C176.819 15.8363 177.292 16.1581 177.697 16.5901C178.111 17.0128 178.437 17.5506 178.676 18.2032C178.924 18.8465 179.048 19.6002 179.048 20.4641V26.6957C179.048 27.5689 178.869 28.2399 178.51 28.7086C178.162 29.1774 177.577 29.4117 176.759 29.4117C175.988 29.4117 175.441 29.1774 175.119 28.7086C174.806 28.2399 174.65 27.5689 174.65 26.6957V20.6572C174.65 20.2435 174.595 19.8759 174.485 19.5542C174.375 19.2233 174.218 18.9476 174.016 18.727C173.823 18.4973 173.594 18.3272 173.326 18.2169C173.061 18.0974 172.775 18.0376 172.472 18.0376C172.095 18.0376 171.737 18.0974 171.397 18.2169C171.057 18.3363 170.758 18.5202 170.501 18.7683C170.252 19.0166 170.05 19.3336 169.894 19.7196C169.746 20.1056 169.674 20.5699 169.674 21.1121V26.6957C169.674 27.5689 169.494 28.2399 169.136 28.7086C168.786 29.1774 168.203 29.4117 167.384 29.4117C166.612 29.4117 166.065 29.1774 165.744 28.7086C165.431 28.2399 165.275 27.5689 165.275 26.6957V20.919C165.275 19.9725 165.077 19.2555 164.683 18.7683C164.296 18.2813 163.768 18.0376 163.097 18.0376C162.702 18.0376 162.334 18.102 161.994 18.2307C161.654 18.3594 161.359 18.5477 161.111 18.796C160.863 19.0441 160.665 19.352 160.518 19.7196C160.381 20.0873 160.312 20.5101 160.312 20.988V26.6957C160.312 27.5689 160.132 28.2399 159.775 28.7086C159.425 29.1774 158.842 29.4117 158.023 29.4117C157.251 29.4117 156.704 29.1774 156.383 28.7086C156.07 28.2399 155.914 27.5689 155.914 26.6957V18.2582Z" fill="#9B9B9B"/>
<path d="M20.8535 27.0588C16.955 27.0588 13.7947 23.8985 13.7947 20C13.7947 16.1015 16.955 12.9412 20.8535 12.9412C24.752 12.9412 27.9123 16.1015 27.9123 20C27.9123 23.8985 24.752 27.0588 20.8535 27.0588Z" fill="#9B9B9B"/>
<path d="M7.17849 22.4113C5.1329 22.772 3.73076 24.748 4.516 26.6711C5.61228 29.3558 7.36125 31.7478 9.62868 33.617C12.8709 36.2896 16.9603 37.7177 21.1615 37.6444C25.3627 37.5711 29.3999 36.0011 32.5469 33.2169C34.7476 31.2698 36.4121 28.8182 37.4141 26.0969C38.1317 24.1476 36.6614 22.2217 34.6045 21.9326C32.5476 21.6436 30.7008 23.1408 29.6848 24.9525C29.1341 25.9345 28.4192 26.8255 27.5627 27.5832C25.757 29.1807 23.4407 30.0815 21.0303 30.1236C18.6199 30.1656 16.2735 29.3463 14.4133 27.8128C13.5308 27.0853 12.7853 26.2199 12.2006 25.2577C11.122 23.4825 9.22408 22.0506 7.17849 22.4113Z" fill="#9B9B9B"/>
<path d="M38.3641 22.2053C38.4542 21.4828 38.5006 20.7468 38.5006 20C38.5006 10.2538 30.5998 2.35291 20.8535 2.35291C11.1073 2.35291 3.20648 10.2538 3.20648 20C3.20648 20.9584 3.28289 21.899 3.42996 22.8161C4.24053 21.7064 5.50561 20.9143 6.87208 20.6734C8.35054 20.4127 9.69422 20.7713 10.8303 21.4415C10.7632 20.9707 10.7285 20.4894 10.7285 20C10.7285 14.4081 15.2617 9.87491 20.8535 9.87491C26.4454 9.87491 30.9786 14.4081 30.9786 20C30.9786 20.3687 30.9588 20.7328 30.9205 21.0913C32.0326 20.3815 33.3632 19.976 34.8501 20.185C36.2238 20.3781 37.5153 21.1251 38.3641 22.2053Z" fill="#9B9B9B"/>
</svg>
