<svg width="20" height="20" viewBox="0 0 20 20" fill="none" xmlns="http://www.w3.org/2000/svg">
<g clip-path="url(#clip0_2_722)">
<mask id="mask0_2_722" style="mask-type:luminance" maskUnits="userSpaceOnUse" x="4" y="2" width="12" height="16">
<path d="M4.76562 2.1875H15.1844V17.8125H4.76562V2.1875Z" fill="white"/>
</mask>
<g mask="url(#mask0_2_722)">
<path d="M7.37082 17.8125C8.80832 17.8125 9.97496 16.6458 9.97496 15.2083V12.6041H7.37082C5.93332 12.6041 4.7666 13.7708 4.7666 15.2083C4.7666 16.6458 5.93332 17.8125 7.37082 17.8125Z" fill="#0ACF83"/>
<path d="M4.7666 10C4.7666 8.56251 5.93332 7.39587 7.37082 7.39587H9.97496V12.6042H7.37082C5.93332 12.6042 4.7666 11.4375 4.7666 10Z" fill="#A259FF"/>
<path d="M4.76685 4.79164C4.76685 3.35414 5.93356 2.1875 7.37106 2.1875H9.97521V7.39586H7.37106C5.93356 7.39586 4.76685 6.22914 4.76685 4.79164Z" fill="#F24E1E"/>
<path d="M9.97498 2.1875H12.5791C14.0166 2.1875 15.1833 3.35414 15.1833 4.79164C15.1833 6.22914 14.0166 7.39586 12.5791 7.39586H9.97498V2.1875Z" fill="#FF7262"/>
<path d="M15.1833 10C15.1833 11.4375 14.0166 12.6042 12.5791 12.6042C11.1416 12.6042 9.97498 11.4375 9.97498 10C9.97498 8.56251 11.1416 7.39587 12.5791 7.39587C14.0166 7.39587 15.1833 8.56251 15.1833 10Z" fill="#1ABCFE"/>
</g>
</g>
<defs>
<clipPath id="clip0_2_722">
<rect width="20" height="20" fill="white"/>
</clipPath>
</defs>
</svg>
