<svg width="60" height="60" viewBox="0 0 60 60" fill="none" xmlns="http://www.w3.org/2000/svg">
<path d="M30 0C33.9397 -5.87054e-08 37.8407 0.775973 41.4805 2.28361C45.1203 3.79125 48.4274 6.00104 51.2132 8.7868C53.999 11.5726 56.2087 14.8797 57.7164 18.5195C59.224 22.1593 60 26.0603 60 30C60 33.9397 59.224 37.8407 57.7164 41.4805C56.2087 45.1203 53.999 48.4274 51.2132 51.2132C48.4274 53.999 45.1203 56.2087 41.4805 57.7164C37.8407 59.224 33.9397 60 30 60C22.0435 60 14.4129 56.8393 8.7868 51.2132C3.16071 45.5871 0 37.9565 0 30C0 22.0435 3.16071 14.4129 8.7868 8.7868C14.4129 3.16071 22.0435 1.18561e-07 30 0ZM40.6 20.82L26.25 35.21L19.27 28.23C19.0376 27.9976 18.7616 27.8132 18.4579 27.6874C18.1542 27.5616 17.8287 27.4968 17.5 27.4968C17.1713 27.4968 16.8458 27.5616 16.5421 27.6874C16.2384 27.8132 15.9624 27.9976 15.73 28.23C15.4976 28.4624 15.3132 28.7384 15.1874 29.0421C15.0616 29.3458 14.9968 29.6713 14.9968 30C14.9968 30.3287 15.0616 30.6542 15.1874 30.9579C15.3132 31.2616 15.4976 31.5376 15.73 31.77L24.48 40.52C24.7122 40.7528 24.9881 40.9375 25.2918 41.0636C25.5956 41.1896 25.9212 41.2545 26.25 41.2545C26.5788 41.2545 26.9044 41.1896 27.2082 41.0636C27.5119 40.9375 27.7878 40.7528 28.02 40.52L44.14 24.35C44.5948 23.8779 44.8459 23.246 44.8393 22.5905C44.8327 21.935 44.5689 21.3083 44.1047 20.8454C43.6405 20.3825 43.0131 20.1205 42.3575 20.1157C41.702 20.111 41.0709 20.3639 40.6 20.82Z" fill="#1877F2"/>
</svg>
