<svg width="238" height="136" viewBox="0 0 238 136" fill="none" xmlns="http://www.w3.org/2000/svg">
<path d="M9.95008 0.200806L0.353149 22.7374L22.8898 32.3344L32.4867 9.79774L9.95008 0.200806ZM75.667 91.7825L75.5006 94.7778L75.667 91.7825ZM136.119 38.8618L138.82 37.5551L136.119 38.8618ZM106.596 35.4476L103.688 34.7117L106.596 35.4476ZM156.805 87.364L157.957 84.5937L156.805 87.364ZM224.287 135.565L237.753 103.648L203.379 107.945L224.287 135.565ZM13.6371 17.3882C19.0056 30.7199 24.7306 49.5958 33.6605 65.0315C42.6735 80.6109 55.465 93.6648 75.5006 94.7778L75.8334 88.7871C58.7359 87.8372 47.4221 76.8374 38.854 62.027C30.2028 47.0729 24.8709 29.2228 19.2028 15.147L13.6371 17.3882ZM75.5006 94.7778C81.655 95.1198 89.5876 93.8158 97.6914 91.2808C105.831 88.7346 114.358 84.8795 121.711 79.9457C129.033 75.0324 135.397 68.9095 138.904 61.7443C142.478 54.4446 143.004 46.2025 138.82 37.5551L133.419 40.1685C136.757 47.0677 136.323 53.3715 133.515 59.1063C130.642 64.9755 125.204 70.3758 118.368 74.9634C111.561 79.5306 103.572 83.1544 95.9001 85.5544C88.1922 87.9656 81.0181 89.0751 75.8334 88.7871L75.5006 94.7778ZM138.82 37.5551C137.43 34.6833 134.84 32.0673 131.918 30.0065C128.959 27.9199 125.414 26.2279 121.832 25.3484C118.286 24.4776 114.417 24.3375 111.02 25.7386C107.466 27.205 104.829 30.1994 103.688 34.7117L109.504 36.1834C110.222 33.3457 111.661 31.9651 113.309 31.2851C115.115 30.5398 117.577 30.4818 120.401 31.1753C123.19 31.8601 126.056 33.2144 128.46 34.9099C130.901 36.6313 132.627 38.5331 133.419 40.1685L138.82 37.5551ZM103.688 34.7117C99.9024 49.6723 109.261 61.8822 120.619 70.8168C132.1 79.8491 146.64 86.3883 155.654 90.1343L157.957 84.5937C149.011 80.8763 135.123 74.5931 124.328 66.101C113.409 57.5112 106.642 47.4945 109.504 36.1834L103.688 34.7117ZM155.654 90.1343C160.172 92.0121 165.867 92.8515 171.712 93.4592C177.735 94.0856 183.896 94.4665 190.092 95.3382C202.503 97.0839 213.087 100.592 218.301 110.201L223.575 107.34C216.868 94.9793 203.531 91.1694 190.928 89.3966C184.618 88.509 177.998 88.0807 172.332 87.4914C166.487 86.8835 161.583 86.1008 157.957 84.5937L155.654 90.1343Z" fill="url(#paint0_linear_726_7960)"/>
<defs>
<linearGradient id="paint0_linear_726_7960" x1="16.4199" y1="16.2676" x2="119.28" y2="195.994" gradientUnits="userSpaceOnUse">
<stop stop-color="#1877F2"/>
<stop offset="1" stop-color="#6A5AEA"/>
</linearGradient>
</defs>
</svg>
