<svg width="178" height="41" viewBox="0 0 178 41" fill="none" xmlns="http://www.w3.org/2000/svg">
<g clip-path="url(#clip0_3039_319)">
<path d="M19.9997 0.500006C15.316 0.496466 10.7795 2.13669 7.1811 5.13477C3.58266 8.13286 1.15044 12.2987 0.308374 16.9061C-0.533687 21.5135 0.26782 26.2703 2.57319 30.3474C4.87856 34.4244 8.54158 37.5632 12.9238 39.2166L14.7227 24.3011C14.7545 24.0345 14.6861 23.7656 14.5308 23.5466C14.3754 23.3276 14.1442 23.1741 13.8821 23.1161L13.0265 22.9963C12.7783 22.9749 12.5687 22.9642 12.3847 22.9642C12.2949 22.9642 12.2093 22.9642 12.1259 22.9642C12.0297 22.9801 11.931 22.9587 11.85 22.9043C11.6361 22.7267 11.6746 22.2626 11.7024 21.9182C11.7024 21.8048 11.7195 21.7043 11.7195 21.6166C11.7181 21.5361 11.726 21.4557 11.743 21.377C11.8051 20.8957 11.8115 20.853 11.8115 20.853C11.881 20.4863 12.0258 20.1381 12.2367 19.8303C12.4477 19.5225 12.7203 19.2618 13.0371 19.0647C13.6789 18.6669 14.3056 18.6669 15.0393 18.6711H15.204C15.2644 18.6713 15.3229 18.6499 15.3688 18.6106C15.4147 18.5714 15.445 18.5169 15.4543 18.4572L15.5954 17.2594C15.7427 15.9904 16.118 14.7585 16.7035 13.623C17.2536 12.5669 17.9973 11.6236 18.896 10.8423C19.8052 10.0634 20.85 9.45862 21.9783 9.0583C23.1951 8.62657 24.4776 8.40944 25.7687 8.41659C26.2561 8.41421 26.743 8.44781 27.2254 8.51712L28.081 8.64974C28.1379 8.658 28.1926 8.67766 28.2418 8.70753C28.2909 8.73741 28.3335 8.77689 28.3671 8.82362C28.4006 8.87034 28.4244 8.92335 28.437 8.97948C28.4496 9.03561 28.4507 9.0937 28.4404 9.15027L27.8735 12.3032C27.854 12.4646 27.789 12.6172 27.6859 12.7429C27.5829 12.8687 27.4461 12.9625 27.2917 13.0134C26.9639 13.1292 26.619 13.1893 26.2714 13.1909C25.0842 13.1909 24.1323 13.5118 23.4222 14.1471C22.712 14.7824 22.2671 15.8968 22.0831 17.4604L21.9698 18.3909C21.9652 18.4263 21.9684 18.4622 21.9792 18.4961C21.9899 18.5301 22.0078 18.5614 22.0318 18.5877C22.0554 18.6145 22.0843 18.6359 22.1168 18.6506C22.1492 18.6654 22.1844 18.6731 22.22 18.6733H24.3313C24.8061 18.6733 25.2981 18.6733 25.7794 18.6733H25.9548C26.0829 18.6614 26.212 18.6694 26.3377 18.6968C26.3934 18.7129 26.4453 18.7402 26.4901 18.7769C26.535 18.8137 26.5719 18.8592 26.5986 18.9107C26.6544 19.0466 26.6627 19.1973 26.6222 19.3385L26.3826 21.1524C26.301 21.7583 26.0027 22.3141 25.5431 22.7171C25.0834 23.1202 24.4934 23.3432 23.8821 23.3449H21.8243C21.7639 23.3447 21.7054 23.3662 21.6595 23.4055C21.6136 23.4447 21.5833 23.4991 21.574 23.5588L19.1976 40.4829C19.4628 40.4936 19.7302 40.5 19.9976 40.5C25.3019 40.5 30.389 38.3929 34.1397 34.6421C37.8904 30.8914 39.9976 25.8043 39.9976 20.5C39.9976 15.1957 37.8904 10.1086 34.1397 6.35787C30.389 2.60715 25.3019 0.500006 19.9976 0.500006H19.9997Z" fill="#9A81F7"/>
</g>
<g clip-path="url(#clip1_3039_319)">
<path d="M68.7437 7.95772L69.1899 5.41712C69.2061 5.32292 69.1845 5.23149 69.1331 5.15391C69.0817 5.07634 69.0006 5.02647 68.9087 5.01262L68.2352 4.90734C67.8863 4.85192 67.5023 4.82422 67.0884 4.82422C66.0255 4.82422 65.0221 4.99599 64.1052 5.334C63.1911 5.67201 62.3743 6.15686 61.6765 6.77192C60.9814 7.38699 60.3999 8.14058 59.9509 9.01331C59.5019 9.88327 59.2098 10.8724 59.08 11.9474L58.9691 12.9143C58.9583 13.0168 58.8718 13.0944 58.7717 13.0944H58.6419C58.0631 13.0915 57.5627 13.0915 57.0651 13.413C56.5793 13.728 56.2022 14.2705 56.1105 14.7821C56.102 14.8297 56.0963 14.8774 56.0901 14.9253C56.0825 14.9839 56.0691 15.0893 56.0454 15.2775C56.0346 15.3275 56.0292 15.3911 56.0292 15.4715C56.0292 15.5408 56.0238 15.6239 56.0157 15.7153C55.994 15.9896 55.9616 16.3664 56.132 16.5104C56.178 16.5492 56.2483 16.5659 56.3484 16.5575C56.416 16.5548 56.4836 16.552 56.5539 16.552C56.7054 16.552 56.8676 16.5603 57.0624 16.5769L57.7439 16.6739C58.1767 16.7764 58.458 17.1865 58.4039 17.6298L56.1915 36.4281C56.1888 36.4475 56.1942 36.464 56.2077 36.4779C56.2185 36.4917 56.2375 36.5001 56.2564 36.5001H58.3687C58.7392 36.5001 59.1071 36.4391 59.456 36.3089C59.8481 36.1648 60.2106 35.9709 60.5 35.6606C60.7948 35.3447 61.0247 34.9624 61.2086 34.569C61.2248 34.5357 61.241 34.4997 61.2573 34.4637C61.4466 34.0343 61.5764 33.5494 61.6413 33.0286L61.8464 31.3452C61.8503 31.313 61.8545 31.2809 61.8588 31.2488C61.866 31.1954 61.8766 31.1159 61.8766 31.1086L63.7996 17.0313C63.8131 16.9288 63.8969 16.854 63.997 16.854H65.6144C66.607 16.854 67.4536 16.0949 67.5833 15.0864L67.7727 13.6235C67.7916 13.5016 67.8079 13.3852 67.7538 13.2828C67.7105 13.1996 67.6347 13.1359 67.5482 13.111C67.4562 13.0833 67.3508 13.0888 67.2453 13.0915C67.1993 13.0944 67.1533 13.0944 67.1074 13.0944C66.7287 13.0888 66.3419 13.0915 65.966 13.0915C65.7767 13.0915 65.5846 13.0944 65.3953 13.0944H64.2946C64.2377 13.0944 64.1837 13.0694 64.1458 13.0251C64.108 12.9808 64.0917 12.9226 64.0971 12.8644L64.1864 12.1136C64.3324 10.853 64.6867 9.95253 65.2411 9.44275C65.7956 8.93019 66.5502 8.67253 67.4833 8.67253C67.7483 8.67253 68.0188 8.62543 68.2866 8.52846C68.5408 8.4398 68.6896 8.25418 68.7437 7.95772Z" fill="#0C0C0D"/>
<path d="M75.8153 4.88281H74.371C72.3561 4.88281 70.6521 6.42879 70.4087 8.47623L67.6311 31.8986C67.6203 31.9955 67.65 32.0953 67.7149 32.1701C67.7798 32.2449 67.8718 32.2865 67.9692 32.2865H69.4162C71.4311 32.2865 73.1323 30.7432 73.3757 28.693L76.1506 5.26792C76.1614 5.17095 76.1318 5.07121 76.0668 4.99641C76.0046 4.92437 75.9127 4.88281 75.8153 4.88281Z" fill="#0C0C0D"/>
<path d="M90.3479 28.9101C91.2539 27.8905 91.9869 26.6659 92.5251 25.2695C93.0606 23.8732 93.3338 22.3328 93.3338 20.6898C93.3338 19.4098 93.1417 18.2656 92.7658 17.282C92.3898 16.3012 91.8679 15.4646 91.216 14.7968C90.5642 14.1291 89.788 13.6138 88.9063 13.2647C88.0246 12.9156 87.059 12.7383 86.0367 12.7383C84.7168 12.7383 83.443 13.0264 82.2475 13.5917C81.0521 14.1596 79.9865 14.9603 79.0777 15.9743C78.1717 16.9883 77.4387 18.2102 76.9004 19.6065C76.3649 21.0001 76.0918 22.5544 76.0918 24.2223C76.0918 25.5023 76.2784 26.6493 76.6489 27.6301C77.0195 28.6109 77.536 29.4475 78.1879 30.1152C78.8397 30.783 79.6186 31.2983 80.5057 31.6474C81.3929 31.9965 82.3611 32.1738 83.3861 32.1738C84.7033 32.1738 85.9772 31.8829 87.1726 31.3094C88.3735 30.7387 89.4391 29.9296 90.3479 28.9101ZM87.6487 23.5684C87.462 24.455 87.1969 25.2446 86.8562 25.9123C86.5127 26.5828 86.0881 27.1203 85.5959 27.511C85.0982 27.9044 84.5248 28.101 83.8919 28.101C83.0481 28.101 82.4314 27.7852 82.0555 27.1618C81.6876 26.5495 81.501 25.5494 81.501 24.1863C81.501 23.1833 81.5957 22.2247 81.7796 21.3326C81.9635 20.4404 82.2313 19.6509 82.5721 18.9887C82.9155 18.3238 83.3375 17.789 83.8324 17.4011C84.3301 17.0077 84.9034 16.811 85.5363 16.811C86.3802 16.811 86.9968 17.1213 87.3728 17.7309C87.7406 18.3321 87.9273 19.3378 87.9273 20.7258C87.9273 21.726 87.8325 22.6818 87.6487 23.5684Z" fill="#0C0C0D"/>
<path d="M120.861 13.1854C120.796 13.0885 120.693 13.0303 120.578 13.0303H117.11C116.804 13.0303 116.518 13.1218 116.263 13.3019C116.009 13.4819 115.833 13.7063 115.744 13.9723L113.134 22.4862C112.931 23.1346 112.734 23.7496 112.545 24.337C112.355 24.9216 112.174 25.5117 112.009 26.0935C111.989 26.1651 111.884 26.1538 111.877 26.0797C111.817 25.4951 111.747 24.8966 111.671 24.3065C111.593 23.7081 111.514 23.0985 111.43 22.4752L110.359 13.9419C110.327 13.6759 110.202 13.4625 109.983 13.2825C109.764 13.1051 109.469 13.0137 109.104 13.0137H106.708C106.402 13.0137 106.11 13.1051 105.843 13.2852C105.577 13.4653 105.396 13.6897 105.307 13.9557L102.197 22.489C101.959 23.1235 101.715 23.7469 101.472 24.3398C101.231 24.9299 100.999 25.5284 100.785 26.1129C100.759 26.1836 100.654 26.1634 100.652 26.088C100.642 25.5449 100.623 24.9908 100.598 24.4423C100.574 23.8854 100.544 23.3118 100.509 22.7412C100.509 22.6913 100.506 22.6497 100.501 22.6082C100.496 22.5638 100.49 22.514 100.49 22.4613L99.9546 13.9501C99.933 13.6786 99.8058 13.4598 99.5705 13.288C99.3325 13.1134 99.0404 13.0276 98.6996 13.0276H94.9213C94.8212 13.0276 94.7292 13.0718 94.6643 13.1495C94.5994 13.227 94.5724 13.3295 94.5886 13.4293L97.4934 31.5848C97.5204 31.7538 97.6611 31.8757 97.8288 31.8757H101.629C102.14 31.8757 102.505 31.5792 102.746 30.9669L106.283 21.5387C106.378 21.2727 106.481 21.0013 106.586 20.7325C106.692 20.4693 106.792 20.195 106.889 19.9124C106.913 19.8439 107.013 19.8569 107.019 19.929C107.043 20.1977 107.07 20.461 107.1 20.7242C107.13 20.9874 107.162 21.2506 107.198 21.5193L108.555 30.9863C108.612 31.3105 108.704 31.546 108.831 31.6818C108.956 31.8148 109.112 31.8813 109.31 31.8813H113.364C113.502 31.8813 113.624 31.7954 113.678 31.6651L120.889 13.5152C120.94 13.4016 120.926 13.2825 120.861 13.1854Z" fill="#0C0C0D"/>
<path d="M135.841 28.5019C136.666 27.3771 137.334 26.0555 137.824 24.576C138.313 23.0937 138.562 21.509 138.562 19.8661C138.562 18.622 138.435 17.536 138.18 16.6355C137.926 15.7379 137.572 14.9926 137.12 14.4163C136.671 13.8428 136.13 13.4134 135.511 13.1474C134.892 12.8787 134.197 12.7402 133.447 12.7402C132.382 12.7402 131.354 13.0283 130.399 13.599C129.439 14.1725 128.541 14.976 127.727 15.99C127.684 16.0433 127.598 16.0073 127.607 15.9395L128.928 4.99921C128.939 4.89947 128.909 4.8025 128.847 4.72769C128.784 4.65289 128.69 4.61133 128.592 4.61133H127.751C125.737 4.61133 124.035 6.15453 123.792 8.20475L121.028 31.4941C121.017 31.5938 121.047 31.6908 121.111 31.7656C121.177 31.8404 121.268 31.882 121.365 31.882H123.405C123.981 31.882 124.398 31.7684 124.647 31.5412C124.898 31.3113 125.109 30.9427 125.271 30.4441L125.325 30.2633C125.34 30.2114 125.407 30.1975 125.442 30.239C125.923 30.8153 126.512 31.2863 127.2 31.6409C127.884 31.9955 128.69 32.1729 129.591 32.1729C130.765 32.1729 131.906 31.8404 132.98 31.1838C134.05 30.5272 135.016 29.624 135.841 28.5019ZM132.858 23.2489C132.636 24.166 132.325 24.9943 131.93 25.712C131.535 26.4295 131.056 27.0196 130.51 27.4629C129.958 27.909 129.344 28.1362 128.69 28.1362C127.914 28.1362 126.926 27.9783 126.526 27.1997C126.199 26.5597 126.372 25.784 126.464 25.1079C126.597 24.1216 126.718 23.1049 126.994 22.1462C127.343 20.8801 127.952 19.686 128.728 18.6387C129.123 18.104 129.539 17.6773 129.966 17.3698C130.399 17.0567 130.824 16.8988 131.23 16.8988C131.822 16.8988 132.306 17.1869 132.663 17.7549C133.015 18.3145 133.193 19.2122 133.193 20.4284C133.19 21.3843 133.079 22.3319 132.858 23.2489Z" fill="#0C0C0D"/>
<path d="M138.735 31.4904C138.724 31.5873 138.753 31.6871 138.818 31.7619C138.883 31.8367 138.975 31.8782 139.073 31.8782H140.484C142.502 31.8782 144.206 30.3295 144.444 28.2765L146.178 13.4152C146.188 13.3182 146.159 13.2185 146.094 13.1437C146.029 13.0689 145.937 13.0273 145.839 13.0273H144.427C142.41 13.0273 140.706 14.5761 140.465 16.6291L138.735 31.4904Z" fill="#0C0C0D"/>
<path d="M147.262 7.20407C147.262 6.83004 147.187 6.47541 147.038 6.15126C146.889 5.82433 146.686 5.53342 146.441 5.28684C146.194 5.04026 145.91 4.84632 145.591 4.70779C145.272 4.56926 144.937 4.5 144.588 4.5C144.555 4.5 144.523 4.5 144.491 4.50277C144.215 4.51385 143.933 4.57758 143.676 4.69117C143.346 4.83524 143.046 5.04303 142.786 5.30346C142.54 5.55004 142.343 5.84095 142.197 6.16788C142.053 6.49203 141.98 6.84113 141.98 7.20684C141.98 7.57256 142.053 7.91887 142.197 8.23749C142.343 8.55887 142.535 8.84424 142.77 9.08528C143.006 9.32632 143.282 9.52303 143.593 9.66433C144.206 9.9497 144.91 9.9497 145.553 9.66433C145.878 9.52026 146.167 9.32632 146.419 9.08251C146.67 8.84147 146.876 8.5561 147.03 8.23472C147.184 7.91333 147.262 7.56701 147.262 7.20407Z" fill="#0C0C0D"/>
<path d="M162.457 15.8663C162.189 15.2928 161.792 14.7663 161.275 14.3037C160.759 13.841 160.115 13.4614 159.358 13.1733C158.601 12.8852 157.721 12.7383 156.745 12.7383C155.758 12.7383 154.811 12.8823 153.932 13.165C153.053 13.4503 152.236 13.8493 151.5 14.3563C150.765 14.8633 150.092 15.4784 149.505 16.1849C148.915 16.8914 148.412 17.6754 148.003 18.5149C147.598 19.3544 147.279 20.2659 147.062 21.219C146.843 22.1721 146.732 23.1639 146.732 24.1696C146.732 25.3638 146.914 26.4664 147.273 27.4416C147.63 28.4169 148.144 29.2619 148.796 29.9546C149.448 30.6472 150.238 31.1902 151.141 31.567C152.047 31.9466 153.053 32.1378 154.135 32.1378C155.008 32.1378 155.826 32.063 156.561 31.9189C157.297 31.7748 158.003 31.5449 158.654 31.2374C159.309 30.9298 159.953 30.5309 160.572 30.0543C161.102 29.647 161.654 29.165 162.208 28.6219C162.338 28.4945 162.349 28.2839 162.23 28.1426L161.051 26.738C160.926 26.5994 160.783 26.483 160.624 26.3972C160.466 26.3113 160.304 26.2669 160.137 26.2669C159.872 26.2669 159.634 26.3085 159.428 26.3917C159.219 26.4747 159.017 26.5828 158.825 26.713L158.208 27.1341C157.989 27.2838 157.743 27.4251 157.475 27.5608C157.205 27.6966 156.883 27.8102 156.523 27.896C156.163 27.9819 155.731 28.0263 155.239 28.0263C154.187 28.0263 153.378 27.7159 152.837 27.1064C152.355 26.5634 152.074 25.7322 152.003 24.6323C151.987 24.3691 152.174 24.1419 152.428 24.1115C154.368 23.8981 156.012 23.6045 157.318 23.2387C158.706 22.8509 159.823 22.3771 160.642 21.8285C161.456 21.2827 162.035 20.6482 162.36 19.9446C162.687 19.2381 162.855 18.4457 162.855 17.5951C162.863 17.0216 162.725 16.4398 162.457 15.8663ZM157.778 18.7338C157.635 19.0192 157.359 19.2879 156.956 19.5317C156.558 19.7728 155.996 19.9972 155.276 20.1994C154.703 20.3601 153.975 20.5208 153.115 20.6704C153.088 20.6759 153.061 20.6787 153.034 20.6787C152.896 20.6787 152.764 20.6178 152.669 20.5042C152.561 20.3712 152.528 20.1966 152.583 20.0359C152.921 19.0302 153.383 18.2046 153.957 17.5785C154.657 16.8166 155.487 16.4315 156.418 16.4315C156.958 16.4315 157.362 16.581 157.613 16.8775C157.862 17.1712 157.986 17.487 157.986 17.8195C157.992 18.1409 157.922 18.4484 157.778 18.7338Z" fill="#0C0C0D"/>
<path d="M177.476 14.5463C176.889 14.042 176.172 13.607 175.339 13.2496C174.373 12.8368 173.259 12.6373 172.039 12.6622C170.814 12.6872 169.733 12.9033 168.824 13.3078C167.915 13.7123 167.147 14.2415 166.543 14.8842C165.941 15.527 165.484 16.2723 165.189 17.0952C164.893 17.9208 164.75 18.7769 164.767 19.6413C164.78 20.3367 164.888 20.9352 165.091 21.4228C165.294 21.9076 165.557 22.3205 165.878 22.6474C166.2 22.977 166.565 23.2514 166.968 23.4647C167.371 23.6808 167.793 23.8692 168.223 24.0299C168.65 24.1906 169.075 24.3402 169.481 24.4704C169.892 24.6034 170.265 24.7586 170.589 24.9303C170.92 25.1049 171.193 25.3182 171.398 25.562C171.609 25.8141 171.72 26.1411 171.728 26.5345C171.739 27.0415 171.547 27.4903 171.16 27.8699C170.776 28.2494 170.173 28.4489 169.373 28.4628C168.81 28.4739 168.339 28.4074 167.985 28.2661C167.633 28.1248 167.325 27.9696 167.071 27.8034L166.365 27.3407C166.168 27.2133 165.932 27.1468 165.665 27.1468C165.654 27.1468 165.643 27.1468 165.632 27.1468C165.324 27.1523 165.064 27.2243 164.858 27.3628C164.65 27.5014 164.463 27.6926 164.307 27.9308L163.157 29.7733C163.071 29.9118 163.09 30.0891 163.206 30.2055C163.43 30.4327 163.698 30.6487 164.004 30.851C164.421 31.1253 164.886 31.3635 165.389 31.5575C166.054 31.8152 166.787 32.0008 167.563 32.1088C167.812 32.1421 168.069 32.1615 168.328 32.167C169.697 32.1809 170.941 31.9731 172.01 31.5464C172.972 31.1586 173.8 30.6432 174.471 30.0087C175.139 29.377 175.655 28.629 176.005 27.7868C176.353 26.9445 176.518 26.0413 176.502 25.1049C176.488 24.4455 176.38 23.872 176.18 23.3982C175.977 22.9244 175.712 22.5116 175.393 22.1708C175.071 21.83 174.701 21.5392 174.293 21.3092C173.881 21.0764 173.457 20.8687 173.027 20.6886C172.599 20.5113 172.175 20.3478 171.761 20.2037C171.347 20.0597 170.971 19.8962 170.641 19.7189C170.311 19.5388 170.038 19.3282 169.832 19.0983C169.621 18.8572 169.51 18.5608 169.505 18.2172C169.494 17.6853 169.673 17.2448 170.029 16.9012C170.387 16.5605 170.99 16.3776 171.825 16.361C172.272 16.3499 172.672 16.3998 173.018 16.505C173.362 16.6076 173.673 16.7294 173.949 16.8652C174.219 16.9982 174.474 17.1201 174.703 17.2254C174.928 17.3251 175.163 17.3778 175.385 17.3694C175.61 17.3639 175.788 17.3168 175.917 17.2254C176.053 17.1284 176.199 16.9705 176.356 16.7571L177.541 15.0172C177.638 14.8649 177.611 14.6654 177.476 14.5463Z" fill="#0C0C0D"/>
</g>
<defs>
<clipPath id="clip0_3039_319">
<rect width="40" height="40" fill="white" transform="translate(0 0.5)"/>
</clipPath>
<clipPath id="clip1_3039_319">
<rect width="121.6" height="32" fill="white" transform="translate(56 4.5)"/>
</clipPath>
</defs>
</svg>
