<svg width="184" height="54" viewBox="0 0 184 54" fill="none" xmlns="http://www.w3.org/2000/svg">
<path d="M0 27C0 12.0883 12.0883 0 27 0H122C124.209 0 126 1.79086 126 4V50C126 52.2091 124.209 54 122 54H27C12.0883 54 0 41.9117 0 27Z" fill="#282828"/>
<path d="M31.6691 33V21.8H33.5091V33H31.6691ZM32.9331 33V31.32H38.7891V33H32.9331ZM43.5284 33.16C42.7604 33.16 42.067 32.9893 41.4484 32.648C40.8404 32.296 40.355 31.816 39.9924 31.208C39.6404 30.6 39.4644 29.9173 39.4644 29.16C39.4644 28.4027 39.6404 27.7253 39.9924 27.128C40.3444 26.52 40.819 26.04 41.4164 25.688C42.0244 25.336 42.6964 25.16 43.4324 25.16C44.147 25.16 44.7764 25.3253 45.3204 25.656C45.875 25.9867 46.307 26.44 46.6164 27.016C46.9364 27.592 47.0964 28.248 47.0964 28.984C47.0964 29.112 47.0857 29.2453 47.0644 29.384C47.0537 29.512 47.0324 29.656 47.0004 29.816H40.6964V28.376H46.0884L45.4324 28.952C45.411 28.4827 45.3204 28.088 45.1604 27.768C45.0004 27.448 44.771 27.2027 44.4724 27.032C44.1844 26.8613 43.827 26.776 43.4004 26.776C42.9524 26.776 42.563 26.872 42.2324 27.064C41.9017 27.256 41.6457 27.528 41.4644 27.88C41.283 28.2213 41.1924 28.632 41.1924 29.112C41.1924 29.592 41.2884 30.0133 41.4804 30.376C41.6724 30.7387 41.9444 31.0213 42.2964 31.224C42.6484 31.416 43.0537 31.512 43.5124 31.512C43.907 31.512 44.2697 31.4427 44.6004 31.304C44.9417 31.1653 45.2297 30.9627 45.4644 30.696L46.5844 31.832C46.211 32.2693 45.7577 32.6 45.2244 32.824C44.691 33.048 44.1257 33.16 43.5284 33.16ZM49.4721 33V22.12H51.2321V33H49.4721ZM47.6321 26.92V25.32H53.0721V26.92H47.6321ZM54.4403 25.72L55.5283 23.688L56.1203 23.528C56.0563 23.656 55.9816 23.7627 55.8963 23.848C55.8109 23.9333 55.7096 23.976 55.5923 23.976C55.3469 23.976 55.1176 23.8747 54.9043 23.672C54.7016 23.4587 54.6003 23.192 54.6003 22.872C54.6003 22.5307 54.7176 22.2427 54.9523 22.008C55.1869 21.7627 55.4696 21.64 55.8003 21.64C56.1203 21.64 56.3976 21.7627 56.6323 22.008C56.8776 22.2427 57.0003 22.5307 57.0003 22.872C57.0003 23.0107 56.9683 23.176 56.9043 23.368C56.8509 23.5493 56.7496 23.784 56.6003 24.072L55.4163 26.248L54.4403 25.72ZM60.113 33.16C59.6863 33.16 59.2757 33.1067 58.881 33C58.4863 32.8827 58.1237 32.7227 57.793 32.52C57.4623 32.3067 57.1743 32.0507 56.929 31.752L58.049 30.632C58.3157 30.9413 58.6197 31.176 58.961 31.336C59.313 31.4853 59.7077 31.56 60.145 31.56C60.5397 31.56 60.8383 31.5013 61.041 31.384C61.2437 31.2667 61.345 31.096 61.345 30.872C61.345 30.6373 61.249 30.456 61.057 30.328C60.865 30.2 60.6143 30.0933 60.305 30.008C60.0063 29.912 59.6863 29.816 59.345 29.72C59.0143 29.624 58.6943 29.496 58.385 29.336C58.0863 29.1653 57.841 28.936 57.649 28.648C57.457 28.36 57.361 27.9867 57.361 27.528C57.361 27.0373 57.473 26.616 57.697 26.264C57.9317 25.912 58.257 25.64 58.673 25.448C59.0997 25.256 59.6063 25.16 60.193 25.16C60.8117 25.16 61.3557 25.272 61.825 25.496C62.305 25.7093 62.705 26.0347 63.025 26.472L61.905 27.592C61.681 27.3147 61.425 27.1067 61.137 26.968C60.849 26.8293 60.5183 26.76 60.145 26.76C59.793 26.76 59.521 26.8133 59.329 26.92C59.137 27.0267 59.041 27.1813 59.041 27.384C59.041 27.5973 59.137 27.7627 59.329 27.88C59.521 27.9973 59.7663 28.0987 60.065 28.184C60.3743 28.2693 60.6943 28.3653 61.025 28.472C61.3663 28.568 61.6863 28.7067 61.985 28.888C62.2943 29.0587 62.545 29.2933 62.737 29.592C62.929 29.88 63.025 30.2587 63.025 30.728C63.025 31.4747 62.7637 32.0667 62.241 32.504C61.7183 32.9413 61.009 33.16 60.113 33.16ZM70.4851 33V22.12H72.3251V33H70.4851ZM66.8371 23.48V21.8H75.9731V23.48H66.8371ZM78.567 33.16C77.8737 33.16 77.2443 32.984 76.679 32.632C76.1243 32.28 75.6817 31.8053 75.351 31.208C75.031 30.6 74.871 29.9227 74.871 29.176C74.871 28.4187 75.031 27.7413 75.351 27.144C75.6817 26.536 76.1243 26.056 76.679 25.704C77.2443 25.3413 77.8737 25.16 78.567 25.16C79.1537 25.16 79.671 25.288 80.119 25.544C80.5777 25.7893 80.9403 26.1307 81.207 26.568C81.4737 27.0053 81.607 27.5013 81.607 28.056V30.264C81.607 30.8187 81.4737 31.3147 81.207 31.752C80.951 32.1893 80.5937 32.536 80.135 32.792C79.6763 33.0373 79.1537 33.16 78.567 33.16ZM78.855 31.496C79.5057 31.496 80.0283 31.2773 80.423 30.84C80.8283 30.4027 81.031 29.8427 81.031 29.16C81.031 28.7013 80.9403 28.296 80.759 27.944C80.5777 27.592 80.3217 27.32 79.991 27.128C79.671 26.9253 79.2923 26.824 78.855 26.824C78.4283 26.824 78.0497 26.9253 77.719 27.128C77.399 27.32 77.143 27.592 76.951 27.944C76.7697 28.296 76.679 28.7013 76.679 29.16C76.679 29.6187 76.7697 30.024 76.951 30.376C77.143 30.728 77.399 31.0053 77.719 31.208C78.0497 31.4 78.4283 31.496 78.855 31.496ZM80.919 33V30.936L81.223 29.064L80.919 27.208V25.32H82.679V33H80.919ZM84.6323 33V21.48H86.3923V33H84.6323ZM93.231 33L89.983 29.08L93.215 25.32H95.311L91.599 29.544L91.679 28.536L95.471 33H93.231ZM88.351 33V21.48H90.111V33H88.351Z" fill="white"/>
<path d="M130 2.07692C130 0.929872 130.93 0 132.077 0H157C171.912 0 184 12.0883 184 27C184 41.9117 171.912 54 157 54H132.077C130.93 54 130 53.0701 130 51.9231V2.07692Z" fill="#282828"/>
<g clip-path="url(#clip0_107_996)">
<path d="M162.556 26.4442L162.556 30.8887L164.222 30.8887C164.664 30.8887 165.088 30.7131 165.401 30.4005C165.713 30.088 165.889 29.664 165.889 29.222L165.889 19.222C165.888 19.1188 165.859 19.0179 165.804 18.9306C165.749 18.8433 165.67 18.773 165.578 18.7276C165.489 18.687 165.39 18.6707 165.293 18.6805C165.195 18.6902 165.102 18.7256 165.022 18.7831L162.161 20.8887L154.694 20.8887C154.484 20.8824 154.274 20.9195 154.079 20.9976C153.883 21.0757 153.705 21.1931 153.557 21.3425C153.409 21.492 153.292 21.6704 153.216 21.8666C153.139 22.0628 153.103 22.2726 153.111 22.4831L153.111 23.1109L159.222 23.1109C160.106 23.1109 160.954 23.4621 161.579 24.0872C162.204 24.7123 162.556 25.5602 162.556 26.4442Z" fill="white"/>
<path d="M150.333 29.5001C150.976 29.4985 151.61 29.6459 152.185 29.9306C152.761 30.2154 153.263 30.6297 153.652 31.1411C154.04 31.6525 154.305 32.2471 154.425 32.8781C154.546 33.5091 154.518 34.1594 154.344 34.7778L159.222 34.7778C159.664 34.7778 160.088 34.6022 160.401 34.2897C160.713 33.9771 160.889 33.5532 160.889 33.1112L160.889 26.4445C160.889 26.0025 160.713 25.5785 160.401 25.266C160.088 24.9534 159.664 24.7778 159.222 24.7778L151.694 24.7778L149.039 22.7167C148.96 22.6584 148.867 22.6219 148.769 22.6112C148.672 22.6005 148.573 22.6158 148.483 22.6556C148.389 22.7006 148.309 22.7715 148.253 22.8599C148.197 22.9484 148.167 23.0509 148.167 23.1556L148.167 30.1278C148.817 29.722 149.567 29.5047 150.333 29.5001Z" fill="white"/>
<path d="M150.333 30.8888C148.799 30.8888 147.556 32.1324 147.556 33.6666C147.556 35.2007 148.799 36.4443 150.333 36.4443C151.867 36.4443 153.111 35.2007 153.111 33.6666C153.111 32.1324 151.867 30.8888 150.333 30.8888Z" fill="white"/>
</g>
<defs>
<clipPath id="clip0_107_996">
<rect width="20" height="20" fill="white" transform="translate(167 37) rotate(-180)"/>
</clipPath>
</defs>
</svg>
