<svg width="20" height="20" viewBox="0 0 20 20" fill="none" xmlns="http://www.w3.org/2000/svg">
<g clip-path="url(#clip0_107_944)">
<path d="M15.5556 9.44447L15.5556 13.8889L17.2222 13.8889C17.6643 13.8889 18.0882 13.7133 18.4008 13.4008C18.7133 13.0882 18.8889 12.6643 18.8889 12.2222L18.8889 2.22225C18.8881 2.11907 18.8585 2.01816 18.8036 1.93083C18.7486 1.8435 18.6705 1.7732 18.5778 1.72781C18.4885 1.68721 18.3901 1.67097 18.2925 1.68072C18.195 1.69048 18.1017 1.72589 18.0223 1.78336L15.1611 3.88892L7.69447 3.88892C7.48391 3.88269 7.27432 3.91976 7.07866 3.99783C6.88301 4.0759 6.70547 4.19331 6.55704 4.34278C6.40861 4.49226 6.29245 4.67061 6.21575 4.86681C6.13905 5.063 6.10344 5.27285 6.11114 5.48336L6.11114 6.11114L12.2222 6.11114C13.1063 6.11114 13.9542 6.46233 14.5793 7.08745C15.2044 7.71257 15.5556 8.56042 15.5556 9.44447Z" fill="white"/>
<path d="M3.33336 12.5C3.9757 12.4985 4.60965 12.6458 5.18543 12.9306C5.76121 13.2153 6.26314 13.6297 6.65181 14.1411C7.04048 14.6525 7.30531 15.247 7.42549 15.878C7.54567 16.509 7.51794 17.1593 7.34447 17.7778L12.2222 17.7778C12.6643 17.7778 13.0882 17.6022 13.4008 17.2896C13.7133 16.9771 13.8889 16.5531 13.8889 16.1111L13.8889 9.44444C13.8889 9.00241 13.7133 8.57849 13.4008 8.26593C13.0882 7.95337 12.6643 7.77777 12.2223 7.77777L4.69447 7.77777L2.03892 5.71666C1.95997 5.65829 1.86697 5.62189 1.76938 5.61115C1.6718 5.60042 1.5731 5.61574 1.48336 5.65555C1.38882 5.70057 1.30893 5.7714 1.2529 5.85987C1.19688 5.94833 1.16699 6.05083 1.16669 6.15555L1.16669 13.1278C1.81686 12.7219 2.56694 12.5046 3.33336 12.5Z" fill="white"/>
<path d="M3.33331 13.8889C1.79918 13.8889 0.555529 15.1326 0.555528 16.6667C0.555528 18.2008 1.79918 19.4445 3.33331 19.4445C4.86743 19.4445 6.11108 18.2008 6.11108 16.6667C6.11108 15.1326 4.86743 13.8889 3.33331 13.8889Z" fill="white"/>
</g>
<defs>
<clipPath id="clip0_107_944">
<rect width="20" height="20" fill="white" transform="translate(20 20) rotate(-180)"/>
</clipPath>
</defs>
</svg>
