<svg width="127" height="54" viewBox="0 0 127 54" fill="none" xmlns="http://www.w3.org/2000/svg">
<path d="M0 27C0 12.0883 12.0883 0 27 0H123C125.209 0 127 1.79086 127 4V50C127 52.2091 125.209 54 123 54H27C12.0883 54 0 41.9117 0 27Z" fill="#282828"/>
<path d="M31.2458 33V21.752H33.4218V33H31.2458ZM32.8458 33V31.064H38.5738V33H32.8458ZM43.4053 33.16C42.5946 33.16 41.8746 32.9893 41.2453 32.648C40.6159 32.296 40.1146 31.816 39.7413 31.208C39.3786 30.6 39.1973 29.9067 39.1973 29.128C39.1973 28.36 39.3733 27.6773 39.7253 27.08C40.0879 26.472 40.5786 25.992 41.1973 25.64C41.8159 25.2773 42.5039 25.096 43.2613 25.096C44.0079 25.096 44.6639 25.2667 45.2293 25.608C45.8053 25.9387 46.2533 26.3973 46.5733 26.984C46.9039 27.56 47.0693 28.216 47.0693 28.952C47.0693 29.0907 47.0586 29.2347 47.0373 29.384C47.0266 29.5227 46.9999 29.6827 46.9573 29.864L40.4613 29.88V28.312L45.9813 28.296L45.1333 28.952C45.1119 28.4933 45.0266 28.1093 44.8773 27.8C44.7386 27.4907 44.5306 27.256 44.2533 27.096C43.9866 26.9253 43.6559 26.84 43.2613 26.84C42.8453 26.84 42.4826 26.936 42.1733 27.128C41.8639 27.3093 41.6239 27.5707 41.4533 27.912C41.2933 28.2427 41.2133 28.6373 41.2133 29.096C41.2133 29.5653 41.2986 29.976 41.4693 30.328C41.6506 30.6693 41.9066 30.936 42.2373 31.128C42.5679 31.3093 42.9519 31.4 43.3893 31.4C43.7839 31.4 44.1413 31.336 44.4613 31.208C44.7813 31.0693 45.0586 30.8667 45.2933 30.6L46.5253 31.832C46.1519 32.2693 45.6933 32.6 45.1493 32.824C44.6159 33.048 44.0346 33.16 43.4053 33.16ZM49.314 33V22.056H51.41V33H49.314ZM47.506 27.112V25.272H53.218V27.112H47.506ZM54.5485 25.976L55.6685 23.88L56.3405 23.688C56.2658 23.8373 56.1805 23.96 56.0845 24.056C55.9885 24.1413 55.8765 24.184 55.7485 24.184C55.4712 24.184 55.2152 24.072 54.9805 23.848C54.7565 23.6133 54.6445 23.32 54.6445 22.968C54.6445 22.584 54.7725 22.2587 55.0285 21.992C55.2845 21.7253 55.5992 21.592 55.9725 21.592C56.3352 21.592 56.6498 21.7253 56.9165 21.992C57.1832 22.2587 57.3165 22.584 57.3165 22.968C57.3165 23.1173 57.2845 23.2987 57.2205 23.512C57.1565 23.7147 57.0392 23.976 56.8685 24.296L55.6365 26.568L54.5485 25.976ZM60.5528 33.176C60.1154 33.176 59.6834 33.1173 59.2568 33C58.8408 32.8827 58.4568 32.7227 58.1048 32.52C57.7528 32.3067 57.4488 32.0507 57.1928 31.752L58.4408 30.488C58.7074 30.7867 59.0168 31.0107 59.3688 31.16C59.7208 31.3093 60.1101 31.384 60.5368 31.384C60.8781 31.384 61.1341 31.336 61.3048 31.24C61.4861 31.144 61.5768 31 61.5768 30.808C61.5768 30.5947 61.4808 30.4293 61.2888 30.312C61.1074 30.1947 60.8674 30.0987 60.5688 30.024C60.2701 29.9387 59.9554 29.848 59.6248 29.752C59.3048 29.6453 58.9954 29.512 58.6968 29.352C58.3981 29.1813 58.1528 28.952 57.9608 28.664C57.7794 28.3653 57.6888 27.9813 57.6888 27.512C57.6888 27.0213 57.8061 26.5947 58.0408 26.232C58.2861 25.8693 58.6328 25.5867 59.0807 25.384C59.5288 25.1813 60.0568 25.08 60.6648 25.08C61.3048 25.08 61.8808 25.192 62.3928 25.416C62.9154 25.64 63.3474 25.976 63.6888 26.424L62.4248 27.688C62.1901 27.4 61.9234 27.192 61.6248 27.064C61.3368 26.936 61.0221 26.872 60.6808 26.872C60.3714 26.872 60.1314 26.92 59.9608 27.016C59.8008 27.112 59.7208 27.2453 59.7208 27.416C59.7208 27.608 59.8114 27.7573 59.9928 27.864C60.1848 27.9707 60.4301 28.0667 60.7288 28.152C61.0274 28.2267 61.3368 28.3173 61.6568 28.424C61.9874 28.52 62.2968 28.6587 62.5848 28.84C62.8834 29.0213 63.1234 29.2613 63.3048 29.56C63.4968 29.8587 63.5928 30.2427 63.5928 30.712C63.5928 31.4693 63.3208 32.072 62.7768 32.52C62.2328 32.9573 61.4914 33.176 60.5528 33.176ZM70.8891 33V21.992H73.0811V33H70.8891ZM67.3051 23.688V21.752H76.6651V23.688H67.3051ZM79.2538 33.16C78.5498 33.16 77.9151 32.984 77.3498 32.632C76.7844 32.28 76.3418 31.8 76.0218 31.192C75.7018 30.584 75.5418 29.9013 75.5418 29.144C75.5418 28.376 75.7018 27.688 76.0218 27.08C76.3418 26.472 76.7844 25.992 77.3498 25.64C77.9151 25.288 78.5498 25.112 79.2538 25.112C79.8084 25.112 80.3044 25.224 80.7418 25.448C81.1791 25.672 81.5258 25.9867 81.7818 26.392C82.0484 26.7867 82.1924 27.2347 82.2138 27.736V30.52C82.1924 31.032 82.0484 31.4853 81.7818 31.88C81.5258 32.2747 81.1791 32.5893 80.7418 32.824C80.3044 33.048 79.8084 33.16 79.2538 33.16ZM79.6378 31.224C80.2244 31.224 80.6991 31.032 81.0618 30.648C81.4244 30.2533 81.6058 29.7467 81.6058 29.128C81.6058 28.7227 81.5204 28.3653 81.3498 28.056C81.1898 27.736 80.9604 27.4907 80.6618 27.32C80.3738 27.1387 80.0324 27.048 79.6378 27.048C79.2538 27.048 78.9124 27.1387 78.6138 27.32C78.3258 27.4907 78.0964 27.736 77.9258 28.056C77.7658 28.3653 77.6858 28.7227 77.6858 29.128C77.6858 29.544 77.7658 29.912 77.9258 30.232C78.0964 30.5413 78.3258 30.7867 78.6138 30.968C78.9124 31.1387 79.2538 31.224 79.6378 31.224ZM81.4938 33V30.92L81.8298 29.032L81.4938 27.176V25.272H83.5738V33H81.4938ZM85.428 33V21.432H87.524V33H85.428ZM94.3091 33L91.3171 29.016L94.2931 25.272H96.7091L93.2211 29.496L93.3011 28.472L96.8691 33H94.3091ZM89.3811 33V21.432H91.4771V33H89.3811Z" fill="white"/>
</svg>
