<svg width="166" height="40" viewBox="0 0 166 40" fill="none" xmlns="http://www.w3.org/2000/svg">
<g clip-path="url(#clip0_233_298)">
<path d="M50.5952 27.4517H62.2557V23.9395H54.7396V10.7102H50.5952V27.4517Z" fill="#9B9B9B"/>
<path d="M69.1641 25.1103C67.5017 25.1103 66.6353 23.6585 66.6353 21.481C66.6353 19.3034 67.5017 17.8283 69.1641 17.8283C70.8265 17.8283 71.7163 19.3034 71.7163 21.481C71.7163 23.6585 70.8265 25.1103 69.1641 25.1103ZM69.1875 27.8264C73.0509 27.8264 75.5797 25.0868 75.5797 21.481C75.5797 17.8751 73.0509 15.1356 69.1875 15.1356C65.3475 15.1356 62.7719 17.8751 62.7719 21.481C62.7719 25.0868 65.3475 27.8264 69.1875 27.8264Z" fill="#9B9B9B"/>
<path d="M82.267 31.5961C84.0465 31.5961 85.6153 31.198 86.669 30.2614C87.629 29.3951 88.2612 28.0839 88.2612 26.281V15.4634H84.6085V16.7512H84.5616C83.8592 15.7444 82.7821 15.1122 81.1899 15.1122C78.2163 15.1122 76.1558 17.5941 76.1558 21.1063C76.1558 24.7824 78.6612 26.7961 81.3538 26.7961C82.8056 26.7961 83.7187 26.2107 84.4212 25.4146H84.5148V26.6088C84.5148 28.0605 83.8358 28.9034 82.2202 28.9034C80.9558 28.9034 80.3236 28.3649 80.1129 27.7327H76.4134C76.788 30.238 78.9655 31.5961 82.267 31.5961ZM82.2436 23.9629C80.8153 23.9629 79.8787 22.7922 79.8787 20.9893C79.8787 19.1629 80.8153 17.9922 82.2436 17.9922C83.8358 17.9922 84.6787 19.3502 84.6787 20.9658C84.6787 22.6517 83.906 23.9629 82.2436 23.9629Z" fill="#9B9B9B"/>
<path d="M95.7717 25.1103C94.1093 25.1103 93.2429 23.6585 93.2429 21.481C93.2429 19.3034 94.1093 17.8283 95.7717 17.8283C97.4342 17.8283 98.3239 19.3034 98.3239 21.481C98.3239 23.6585 97.4342 25.1103 95.7717 25.1103ZM95.7951 27.8264C99.6585 27.8264 102.187 25.0868 102.187 21.481C102.187 17.8751 99.6585 15.1356 95.7951 15.1356C91.9551 15.1356 89.3795 17.8751 89.3795 21.481C89.3795 25.0868 91.9551 27.8264 95.7951 27.8264Z" fill="#9B9B9B"/>
<path d="M103.301 27.4517H107.118V15.4634H103.301V27.4517ZM103.301 13.8009H107.118V10.7102H103.301V13.8009Z" fill="#9B9B9B"/>
<path d="M108.775 31.4088H112.591V26.2107H112.638C113.387 27.2175 114.488 27.8263 116.033 27.8263C119.171 27.8263 121.255 25.3444 121.255 21.4575C121.255 17.8517 119.311 15.1122 116.127 15.1122C114.488 15.1122 113.317 15.838 112.498 16.9151H112.427V15.4634H108.775V31.4088ZM115.05 24.8761C113.411 24.8761 112.474 23.5415 112.474 21.598C112.474 19.6546 113.317 18.1795 114.979 18.1795C116.619 18.1795 117.391 19.5375 117.391 21.598C117.391 23.6351 116.501 24.8761 115.05 24.8761Z" fill="#9B9B9B"/>
<path d="M127.468 27.8263C130.606 27.8263 132.924 26.4683 132.924 23.8458C132.924 20.7785 130.442 20.24 128.335 19.8888C126.813 19.6078 125.455 19.4907 125.455 18.6478C125.455 17.8985 126.18 17.5473 127.117 17.5473C128.171 17.5473 128.897 17.8751 129.037 18.9522H132.549C132.362 16.5873 130.536 15.1122 127.14 15.1122C124.307 15.1122 121.966 16.4234 121.966 18.9522C121.966 21.7619 124.19 22.3239 126.274 22.6751C127.866 22.9561 129.318 23.0732 129.318 24.1502C129.318 24.9229 128.592 25.3444 127.445 25.3444C126.18 25.3444 125.384 24.759 125.244 23.5649H121.638C121.755 26.2107 123.956 27.8263 127.468 27.8263Z" fill="#9B9B9B"/>
<path d="M138.108 27.8029C139.771 27.8029 140.824 27.1473 141.691 25.9765H141.761V27.4517H145.414V15.4634H141.597V22.16C141.597 23.5883 140.801 24.5717 139.49 24.5717C138.272 24.5717 137.687 23.8458 137.687 22.5346V15.4634H133.894V23.3307C133.894 26 135.345 27.8029 138.108 27.8029Z" fill="#9B9B9B"/>
<path d="M147.073 27.4517H150.89V20.7317C150.89 19.3034 151.592 18.2966 152.786 18.2966C153.934 18.2966 154.472 19.0458 154.472 20.3336V27.4517H158.289V20.7317C158.289 19.3034 158.968 18.2966 160.185 18.2966C161.333 18.2966 161.871 19.0458 161.871 20.3336V27.4517H165.688V19.6546C165.688 16.9619 164.33 15.1122 161.614 15.1122C160.068 15.1122 158.78 15.7678 157.844 17.2195H157.797C157.188 15.9317 155.994 15.1122 154.425 15.1122C152.693 15.1122 151.545 15.9317 150.796 17.1727H150.726V15.4634H147.073V27.4517Z" fill="#9B9B9B"/>
<path fill-rule="evenodd" clip-rule="evenodd" d="M20.1796 39.159C30.9559 39.159 39.6918 30.4231 39.6918 19.6468C39.6918 8.87056 30.9559 0.134644 20.1796 0.134644C9.40329 0.134644 0.667397 8.87056 0.667397 19.6468C0.667397 30.4231 9.40329 39.159 20.1796 39.159ZM26.2667 9.22424C26.563 8.17177 25.5417 7.5494 24.6089 8.21396L11.5875 17.4903C10.5759 18.211 10.735 19.6468 11.8265 19.6468H15.2554V19.6203H21.9381L16.493 21.5415L14.0925 30.0694C13.7962 31.1219 14.8175 31.7443 15.7503 31.0797L28.7717 21.8034C29.7833 21.0827 29.6241 19.6468 28.5327 19.6468H23.3329L26.2667 9.22424Z" fill="#9B9B9B"/>
</g>
<defs>
<clipPath id="clip0_233_298">
<rect width="165.854" height="40" fill="white"/>
</clipPath>
</defs>
</svg>
